<svg width="20" height="20" viewBox="0 0 20 20" fill="none" xmlns="http://www.w3.org/2000/svg">
<path d="M2.3252 13.4429C2.7934 13.0502 5.5395 11.3113 5.9959 11.3911C6.2102 11.4291 6.3741 11.6118 6.8129 12.1352C7.0158 12.3928 7.2386 12.6341 7.4793 12.8568C7.9203 12.7503 8.3472 12.592 8.7511 12.3854C10.335 11.6142 11.6147 10.3342 12.3854 8.75C12.592 8.34611 12.7503 7.91922 12.8568 7.47821C12.6341 7.23752 12.3928 7.01469 12.1352 6.81179C11.6123 6.37304 11.4291 6.21018 11.3911 5.99482C11.3112 5.53732 13.0518 2.79232 13.4429 2.32411C13.6068 2.13018 13.7557 2 13.9464 2C14.4993 2 17 5.09214 17 5.49286C17 5.52554 16.9464 8.74464 12.8809 12.8809C8.7446 16.9464 5.5255 17 5.4929 17C5.0921 17 2 14.4993 2 13.9464C2 13.7557 2.1302 13.6068 2.3252 13.4429Z" fill="white"/>
</svg>
