<svg width="15" height="15" viewBox="0 0 15 15" fill="none" xmlns="http://www.w3.org/2000/svg">
<path d="M14.9984 15.0004V9.50664C14.9984 6.80664 14.4172 4.74414 11.2672 4.74414C9.74844 4.74414 8.73594 5.56914 8.32344 6.35664H8.28594V4.98789H5.30469V15.0004H8.41719V10.0316C8.41719 8.71914 8.66094 7.46289 10.2734 7.46289C11.8672 7.46289 11.8859 8.94414 11.8859 10.1066V14.9816H14.9984V15.0004Z" fill="#B68C5A"/>
<path d="M0.242188 4.98755H3.35469V15H0.242188V4.98755Z" fill="#B68C5A"/>
<path d="M1.8 0C0.80625 0 0 0.80625 0 1.8C0 2.79375 0.80625 3.61875 1.8 3.61875C2.79375 3.61875 3.6 2.79375 3.6 1.8C3.6 0.80625 2.79375 0 1.8 0Z" fill="#B68C5A"/>
</svg>
