<svg width="18" height="18" viewBox="0 0 18 18" fill="none" xmlns="http://www.w3.org/2000/svg">
<path d="M9 1.5C5.96767 1.5 3.5 4.04125 3.5 7.16562C3.5 11.605 8.483 16.1887 8.69506 16.3812C8.78244 16.4606 8.89122 16.5 9 16.5C9.10878 16.5 9.21756 16.4606 9.30494 16.3819C9.517 16.1888 14.5 11.605 14.5 7.16562C14.5 4.04125 12.0323 1.5 9 1.5ZM9 10.25C7.31517 10.25 5.94444 8.84812 5.94444 7.125C5.94444 5.40188 7.31517 4 9 4C10.6848 4 12.0556 5.40188 12.0556 7.125C12.0556 8.84812 10.6848 10.25 9 10.25Z" fill="white"/>
</svg>
