<svg width="18" height="18" viewBox="0 0 18 18" fill="none" xmlns="http://www.w3.org/2000/svg">
<path d="M10.3493 10.8059C9.95073 11.0716 9.48775 11.2121 9.01041 11.2121C8.5331 11.2121 8.07013 11.0716 7.67155 10.8059L1.10667 6.42918C1.07025 6.4049 1.03476 6.37958 1 6.35355V13.5253C1 14.3475 1.66727 15.0001 2.47482 15.0001H15.546C16.3682 15.0001 17.0208 14.3328 17.0208 13.5253V6.35352C16.986 6.37961 16.9504 6.40499 16.9139 6.4293L10.3493 10.8059Z" fill="white"/>
<path d="M1.62738 5.64694L8.19225 10.0237C8.44076 10.1894 8.72557 10.2722 9.01038 10.2722C9.29522 10.2722 9.58006 10.1893 9.82857 10.0237L16.3934 5.64694C16.7863 5.38519 17.0208 4.94712 17.0208 4.47432C17.0208 3.66136 16.3594 3 15.5465 3H2.47432C1.66139 3.00003 1 3.66139 1 4.4751C1 4.94712 1.23455 5.38519 1.62738 5.64694Z" fill="white"/>
</svg>
