<svg width="164" height="48" viewBox="0 0 164 48" fill="none" xmlns="http://www.w3.org/2000/svg">
<mask id="mask0_1_39913" style="mask-type:luminance" maskUnits="userSpaceOnUse" x="0" y="0" width="50" height="48">
<path d="M50 0H0V47.053H50V0Z" fill="white"/>
</mask>
<g mask="url(#mask0_1_39913)">
<path d="M41.0143 26.1653L36.9492 14.2842C37.3282 14.1679 37.6038 13.8148 37.6038 13.3971C37.6038 13.2205 37.5479 13.0569 37.4617 12.9148C38.0173 12.6047 38.3962 12.0148 38.3962 11.3301C38.3962 10.5119 37.8579 9.83149 37.1172 9.59899C37.2249 9.46986 37.2938 9.31043 37.2938 9.12956C37.2938 8.73343 36.9709 8.41038 36.5703 8.41038C36.1742 8.41038 35.8511 8.73332 35.8511 9.12956C35.8511 9.31043 35.92 9.46975 36.0277 9.59899C35.6789 9.70667 35.3817 9.9133 35.1578 10.1932H27.1395C26.8768 9.69805 26.4591 9.30181 25.938 9.08655C25.727 7.78606 26.4807 7.27793 26.4807 6.19701C26.4807 5.42188 25.8907 4.98695 25.4515 4.42708C25.6151 4.29795 25.7185 4.09552 25.7185 3.87152C25.7185 3.47528 25.3998 3.15234 24.9993 3.15234C24.6032 3.15234 24.2801 3.47528 24.2801 3.87152C24.2801 4.09972 24.3878 4.29784 24.5514 4.43139C24.1122 4.98695 23.5222 5.42188 23.5222 6.19701C23.5222 7.39844 24.2629 7.77743 23.9744 9.12956C23.4965 9.35355 23.1089 9.72812 22.8634 10.1932H14.8494C14.6254 9.9133 14.324 9.70667 13.9752 9.59899C14.0829 9.46986 14.1518 9.31043 14.1518 9.12956C14.1518 8.73343 13.8288 8.41038 13.4326 8.41038C13.032 8.41038 12.7134 8.73332 12.7134 9.12956C12.7134 9.31043 12.778 9.46975 12.8857 9.59899C12.1449 9.83149 11.6067 10.512 11.6067 11.3301C11.6067 12.0364 12.0115 12.6435 12.6015 12.9492C12.4767 13.0655 12.3991 13.3368 12.3991 13.5219C12.3991 13.9353 12.6747 14.2927 13.058 14.4047L8.98837 26.286H8.60938C9.083 28.4348 16.7268 29.3821 18.2555 26.286H17.7301L13.6046 14.4005C13.6262 14.3919 13.6477 14.3833 13.6649 14.3747C13.6864 14.366 13.7079 14.3574 13.7294 14.3488C14.0351 14.1981 14.2462 13.8838 14.2462 13.522C14.2462 13.3368 14.1902 13.1689 14.0998 13.0268C14.397 12.9105 14.651 12.7168 14.849 12.4713H22.8631C23.0008 12.734 23.186 12.9665 23.41 13.1603C23.3368 13.5694 23.5306 14.1593 23.9138 14.1249C24.1119 15.8819 23.8148 21.0968 23.354 23.4137C22.6218 23.9993 22.9578 25.4118 23.3712 26.2601C23.608 26.751 23.5951 27.3711 23.4573 28.0128C24.4865 28.0214 25.5502 28.1807 26.6182 28.4864C26.3296 27.6208 26.2134 26.7682 26.6139 26.2601C27.0272 25.4118 27.3631 23.9993 26.6311 23.4137C26.1703 21.0969 25.8732 15.8819 26.0712 14.1249C26.4502 14.1593 26.6441 13.5823 26.5794 13.1732C26.8076 12.9751 26.9971 12.7383 27.1392 12.4713H35.1576C35.3385 12.6995 35.5753 12.889 35.8466 13.0053C35.7906 13.1259 35.7605 13.255 35.7605 13.3972C35.7605 13.759 35.9715 14.0733 36.2772 14.224C36.2945 14.2326 36.3159 14.2412 36.3375 14.2541C36.359 14.2628 36.3805 14.2714 36.402 14.2757L32.2765 26.1655H31.7469C33.2755 29.2574 40.9236 28.3101 41.3973 26.1655H41.0143V26.1653ZM13.1827 26.286H9.29837L13.1827 14.9302V26.286ZM17.4201 26.286H13.4755V14.9173L17.4201 26.286ZM36.5315 26.1653H32.5826L36.5315 14.7968V26.1653ZM36.82 26.1653V14.8097L40.7043 26.1655H36.82V26.1653Z" fill="white"/>
<path d="M25.0011 41.5528C14.1448 41.5528 5.3125 32.7206 5.3125 21.8643C5.3125 11.008 14.1448 2.17578 25.0011 2.17578C35.8573 2.17578 44.6895 11.008 44.6895 21.8643C44.6895 32.7206 35.8573 41.5528 25.0011 41.5528ZM25.0011 2.40284C14.27 2.40284 5.53956 11.1332 5.53956 21.8643C5.53956 32.5954 14.27 41.3258 25.0011 41.3258C35.7322 41.3258 44.4625 32.5954 44.4625 21.8643C44.4625 11.1332 35.7322 2.40284 25.0011 2.40284Z" fill="white"/>
<path d="M38.0626 5.71528C38.0626 5.71528 38.6155 5.55052 39.194 5.40811C39.7624 5.27229 40.3565 5.1587 40.3565 5.1587C40.3565 5.1587 40.2441 5.05851 40.0755 4.90816C39.9091 4.7552 39.6798 4.55991 39.4464 4.3694C39.2175 4.17343 38.976 3.99301 38.798 3.85412C38.6205 3.71421 38.4979 3.62695 38.4979 3.62695C38.4979 3.62695 37.9211 3.80079 37.3687 3.9988C36.8087 4.20191 36.2773 4.42318 36.2773 4.42318C36.2773 4.42318 36.3918 4.49989 36.5635 4.61506C36.7369 4.72774 36.9642 4.88376 37.1858 5.04761C37.4119 5.20523 37.6284 5.37589 37.7917 5.50263C37.9558 5.62813 38.0626 5.71528 38.0626 5.71528Z" fill="white"/>
<path d="M40.7445 2.39308C40.7445 2.39308 40.7499 3.02024 40.7275 3.62742C40.7002 4.2455 40.6472 4.84134 40.6472 4.84134C40.6472 4.84134 40.5326 4.73921 40.3608 4.58603C40.1913 4.43012 39.9575 4.2312 39.7197 4.03694C39.4864 3.83723 39.2404 3.65341 39.0588 3.51179C38.8779 3.36927 38.7529 3.28031 38.7529 3.28031C38.7529 3.28031 38.7437 2.6796 38.7033 2.06458C38.6609 1.4583 38.5898 0.833984 38.5898 0.833984C38.5898 0.833984 38.7281 0.92635 38.9355 1.0649C39.1444 1.20118 39.4185 1.38954 39.6863 1.58687C39.9588 1.77784 40.2207 1.98299 40.4176 2.13607C40.6156 2.28801 40.7445 2.39308 40.7445 2.39308Z" fill="white"/>
<path d="M41.2302 8.91222C41.2302 8.91222 41.3757 8.90303 41.5938 8.88918C41.8133 8.87636 42.1091 8.86206 42.4009 8.85934C42.6947 8.85469 42.9926 8.85548 43.2177 8.85855C43.4443 8.86059 43.5909 8.86853 43.5909 8.86853C43.5909 8.86853 43.5075 8.74303 43.3724 8.56193C43.2374 8.38072 43.0659 8.1329 42.8757 7.89915C42.6902 7.66176 42.504 7.42506 42.355 7.2552C42.2091 7.08272 42.1118 6.96777 42.1118 6.96777C42.1118 6.96777 41.9646 6.97606 41.7394 6.99807C41.5153 7.01906 41.2191 7.05015 40.9277 7.08612C40.638 7.11994 40.3443 7.16714 40.1282 7.20266C39.913 7.23965 39.7695 7.26439 39.7695 7.26439C39.7695 7.26439 40.1579 7.65507 40.5231 8.06776C40.7069 8.27281 40.8802 8.48715 41.0153 8.64329C41.1475 8.80204 41.2302 8.91222 41.2302 8.91222Z" fill="white"/>
<path d="M44.5731 6.25464C44.5731 6.25464 44.5398 6.40624 44.4897 6.63375C44.4389 6.85978 44.3691 7.15742 44.287 7.45585C44.2071 7.75303 44.1231 8.04488 44.0583 8.26115C43.995 8.47663 43.945 8.62211 43.945 8.62211C43.945 8.62211 43.86 8.49422 43.7223 8.30972C43.5849 8.12499 43.41 7.87251 43.2161 7.63422C43.0271 7.3923 42.8371 7.15106 42.6854 6.97791C42.5367 6.80214 42.4375 6.68504 42.4375 6.68504C42.4375 6.68504 42.4711 6.53548 42.5111 6.31421C42.5524 6.09204 42.6049 5.79281 42.6525 5.48859C42.7025 5.18279 42.7387 4.8805 42.7657 4.6497C42.7911 4.41811 42.8081 4.26367 42.8081 4.26367C42.8081 4.26367 43.2774 4.73583 43.7184 5.23453C43.9403 5.48247 44.1506 5.74061 44.3131 5.93C44.4726 6.12199 44.5731 6.25464 44.5731 6.25464Z" fill="white"/>
<path d="M43.6325 12.7247C43.6325 12.7247 43.7768 12.7472 43.9933 12.7809C44.2124 12.8151 44.5013 12.8666 44.786 12.9273C45.3595 13.0448 45.9466 13.1926 45.9466 13.1926C45.9466 13.1926 45.8866 13.0544 45.7969 12.847C45.7034 12.6414 45.596 12.3592 45.4587 12.0908C45.2037 11.5447 44.9132 11.0166 44.9132 11.0166C44.9132 11.0166 44.7661 10.9955 44.5454 10.9639C44.3214 10.936 44.0248 10.9024 43.7317 10.8746C43.4388 10.8462 43.1493 10.8236 42.9273 10.8131C42.7084 10.8028 42.5625 10.7959 42.5625 10.7959C42.5625 10.7959 42.6358 10.9127 42.7458 11.0877C42.8495 11.2667 42.9877 11.5053 43.1259 11.7441C43.2554 11.9877 43.3849 12.2314 43.482 12.4141C43.5722 12.6004 43.6325 12.7247 43.6325 12.7247Z" fill="white"/>
<path d="M47.4714 10.8527C47.4714 10.8527 47.4063 10.9933 47.3084 11.2042C47.2119 11.4127 47.0762 11.6895 46.9306 11.9635C46.645 12.5112 46.3459 13.0285 46.3459 13.0285C46.3459 13.0285 46.2849 12.8877 46.1935 12.6764C46.0983 12.4669 45.9887 12.1796 45.8489 11.9061C45.589 11.3497 45.293 10.8117 45.293 10.8117C45.293 10.8117 45.3549 10.6728 45.4479 10.4644C45.5359 10.257 45.6512 9.97674 45.7631 9.69079C45.8756 9.40484 45.9845 9.11333 46.0578 8.89592C46.1323 8.6759 46.1821 8.5293 46.1821 8.5293C46.1821 8.5293 46.2703 8.67023 46.4026 8.88174C46.5275 9.09745 46.6941 9.3851 46.8607 9.67275C47.0166 9.96618 47.1725 10.2595 47.2895 10.4795C47.3987 10.7035 47.4714 10.8527 47.4714 10.8527Z" fill="white"/>
<path d="M45.1648 16.9652C45.1648 16.9652 45.3057 17.015 45.5043 17.0973C45.705 17.1788 45.9738 17.2917 46.2441 17.4111C46.5143 17.5303 46.786 17.656 46.9904 17.7533C47.1892 17.8534 47.3216 17.9201 47.3216 17.9201C47.3216 17.9201 47.3157 17.8829 47.3054 17.8179C47.2968 17.7526 47.2778 17.6603 47.254 17.5499C47.2076 17.3288 47.1457 17.034 47.0838 16.7393C47.0185 16.4452 46.9337 16.1559 46.8789 15.9368C46.8214 15.7182 46.7832 15.5727 46.7832 15.5727C46.7832 15.5727 46.6434 15.519 46.43 15.4441C46.2172 15.3689 45.9348 15.2724 45.6545 15.1824C45.3734 15.0923 45.0974 15.0077 44.887 14.9486C44.6735 14.8922 44.5312 14.8545 44.5312 14.8545C44.5312 14.8545 44.5434 14.8867 44.5646 14.9432C44.5859 14.9997 44.6177 15.08 44.6469 15.1791C44.7094 15.3762 44.7928 15.6389 44.8762 15.9017C44.9638 16.1633 45.0202 16.4336 45.0769 16.6322C45.1295 16.832 45.1648 16.9652 45.1648 16.9652Z" fill="white"/>
<path d="M49.3136 15.9626C49.3136 15.9626 49.2255 16.0864 49.0785 16.2713C48.9336 16.4557 48.7393 16.6975 48.5435 16.9327C48.3477 17.1683 48.1505 17.3973 48.002 17.5659C47.8473 17.734 47.7442 17.846 47.7442 17.846C47.7442 17.846 47.7382 17.8081 47.7276 17.7419C47.7188 17.6753 47.6995 17.5813 47.6752 17.4687C47.6279 17.2434 47.5648 16.943 47.5017 16.6426C47.4352 16.343 47.3488 16.048 47.2929 15.8248C47.2343 15.6021 47.1953 15.4537 47.1953 15.4537C47.1953 15.4537 47.286 15.333 47.4157 15.1494C47.5462 14.9656 47.719 14.7165 47.8895 14.4611C48.0596 14.2062 48.2302 13.944 48.3526 13.7461C48.4708 13.548 48.5496 13.4158 48.5496 13.4158C48.5496 13.4158 48.5641 13.4547 48.5894 13.5228C48.6148 13.5909 48.6524 13.6878 48.6885 13.8072C48.7639 14.045 48.8646 14.3619 48.9652 14.6788C49.0692 14.9947 49.1407 15.3204 49.2082 15.5605C49.2715 15.8017 49.3136 15.9626 49.3136 15.9626Z" fill="white"/>
<path d="M45.7319 21.4311C45.7319 21.4311 46.2146 21.7494 46.6982 22.1018C47.1652 22.4506 47.63 22.8333 47.63 22.8333C47.63 22.8333 47.636 22.6829 47.6449 22.4571C47.6591 22.2314 47.6586 21.9302 47.6533 21.6291C47.6485 21.3279 47.6541 21.0264 47.6345 20.8012C47.6213 20.5757 47.6126 20.4254 47.6126 20.4254C47.6126 20.4254 47.4876 20.3442 47.3003 20.2226C47.1138 20.1024 46.8652 19.9465 46.6042 19.7983C46.089 19.4994 45.5781 19.2344 45.5781 19.2344C45.5781 19.2344 45.5928 19.3713 45.6148 19.5767C45.6338 19.7823 45.6754 20.0551 45.6842 20.3307C45.7004 20.6057 45.7166 20.8807 45.7287 21.0869C45.7307 21.2933 45.7319 21.4311 45.7319 21.4311Z" fill="white"/>
<path d="M50.0016 21.357C50.0016 21.357 49.5256 21.7634 49.0487 22.1359C48.5553 22.5113 48.0607 22.8529 48.0607 22.8529C48.0607 22.8529 48.0667 22.6995 48.0759 22.4695C48.0902 22.2395 48.0898 21.9325 48.0845 21.6256C48.0797 21.3186 48.0851 21.0115 48.0653 20.7818C48.0519 20.5519 48.043 20.3987 48.043 20.3987C48.043 20.3987 48.1573 20.299 48.3288 20.1493C48.5011 19.9979 48.7299 19.7921 48.9451 19.5805C49.3826 19.1587 49.8156 18.7031 49.8156 18.7031C49.8156 18.7031 49.8335 18.8686 49.8606 19.1166C49.8843 19.365 49.9312 19.695 49.9441 20.0277C49.9632 20.3599 49.9824 20.692 49.9968 20.9412C49.9997 21.1906 50.0016 21.357 50.0016 21.357Z" fill="white"/>
<path d="M45.3203 25.9166C45.3203 25.9166 45.4261 26.0214 45.5734 26.1808C45.7203 26.34 45.9156 26.5563 46.1095 26.7792C46.3034 27.0017 46.496 27.2308 46.6395 27.4055C46.7774 27.5805 46.8693 27.6972 46.8693 27.6972C46.8693 27.6972 46.9163 27.5538 46.9647 27.333C47.0167 27.1131 47.0862 26.82 47.1555 26.5269C47.2173 26.2322 47.2677 25.9351 47.3106 25.7132C47.3522 25.4912 47.3774 25.3427 47.3774 25.3427C47.3774 25.3427 46.9523 24.9097 46.5228 24.5103C46.3084 24.3096 46.0946 24.1158 45.9231 23.9722C45.7548 23.8307 45.6426 23.7363 45.6426 23.7363C45.6426 23.7363 45.6307 23.8736 45.6128 24.0796C45.5848 24.2844 45.5475 24.5575 45.5101 24.8306C45.4795 25.1048 45.4185 25.3742 45.3831 25.5779C45.3454 25.7811 45.3203 25.9166 45.3203 25.9166Z" fill="white"/>
<path d="M49.504 26.7706C49.504 26.7706 49.3711 26.8451 49.1619 26.9504C48.9523 27.0557 48.6736 27.1921 48.3964 27.3219C48.1191 27.4521 47.8431 27.5757 47.6369 27.6654C47.4259 27.7522 47.2852 27.8099 47.2852 27.8099C47.2852 27.8099 47.3329 27.6638 47.3824 27.4389C47.4354 27.2149 47.5061 26.9161 47.5767 26.6175C47.6398 26.3171 47.6912 26.0144 47.7348 25.7883C47.7773 25.5621 47.8029 25.4108 47.8029 25.4108C47.8029 25.4108 48.3266 25.1258 48.8545 24.8072C49.1185 24.6489 49.3845 24.484 49.5732 24.356C49.7654 24.2267 49.8935 24.1406 49.8935 24.1406C49.8935 24.1406 49.8787 24.3063 49.8564 24.5547C49.8228 24.8018 49.7782 25.1313 49.7335 25.4608C49.6946 25.7912 49.6238 26.1164 49.5806 26.3619C49.5345 26.6072 49.504 26.7706 49.504 26.7706Z" fill="white"/>
<path d="M43.9414 30.2084C43.9414 30.2084 44.2485 30.7029 44.5335 31.2241C44.8101 31.7376 45.0719 32.2814 45.0719 32.2814C45.0719 32.2814 45.1402 32.1471 45.2428 31.9458C45.2941 31.8452 45.3539 31.7277 45.418 31.6019C45.4762 31.4733 45.5384 31.336 45.6006 31.1988C45.8583 30.6538 46.0716 30.0901 46.0716 30.0901C46.0716 30.0901 45.9925 29.9637 45.8738 29.7741C45.7535 29.5856 45.5979 29.3404 45.4236 29.0955C45.0826 28.6065 44.7316 28.1494 44.7316 28.1494C44.7316 28.1494 44.6871 28.2799 44.6204 28.4758C44.5529 28.6713 44.4707 28.9349 44.3635 29.1892C44.2609 29.4451 44.1638 29.7034 44.0835 29.894C43.9981 30.0826 43.9414 30.2084 43.9414 30.2084Z" fill="white"/>
<path d="M47.8425 31.9431C47.8425 31.9431 47.2435 32.1123 46.6493 32.2464C46.0439 32.3788 45.4531 32.4809 45.4531 32.4809C45.4531 32.4809 45.5228 32.3442 45.6272 32.139C45.6794 32.0365 45.7403 31.9168 45.8056 31.7885C45.8649 31.6575 45.9283 31.5177 45.9917 31.378C46.2541 30.8227 46.4716 30.2483 46.4716 30.2483C46.4716 30.2483 46.6172 30.2061 46.8355 30.1429C47.0534 30.0777 47.3516 29.9892 47.6355 29.8883C48.2098 29.6912 48.7942 29.4619 48.7942 29.4619C48.7942 29.4619 48.7407 29.6193 48.6606 29.8553C48.5794 30.091 48.4783 30.4078 48.3508 30.715C48.2282 31.0238 48.1095 31.3344 48.0126 31.5641C47.9106 31.7915 47.8425 31.9431 47.8425 31.9431Z" fill="white"/>
<path d="M41.6797 34.105C41.6797 34.105 41.7301 34.2436 41.7952 34.4492C41.8619 34.6557 41.9484 34.9344 42.0309 35.2186C42.1128 35.5018 42.1937 35.7931 42.2474 36.0097C42.2982 36.2261 42.332 36.3704 42.332 36.3704C42.332 36.3704 42.3567 36.3419 42.3998 36.2919C42.4424 36.2418 42.5062 36.1724 42.5741 36.082C42.7132 35.9041 42.8988 35.6668 43.0843 35.4295C43.2704 35.1926 43.4353 34.9399 43.5685 34.7575C43.6989 34.573 43.7858 34.45 43.7858 34.45C43.7858 34.45 43.7374 34.3085 43.6577 34.0967C43.5789 33.8854 43.4715 33.6071 43.3607 33.3347C43.1454 32.7912 42.8896 32.2627 42.8896 32.2627C42.8896 32.2627 42.8244 32.3843 42.7162 32.5604C42.6052 32.7348 42.4571 32.9674 42.309 33.1999C42.1642 33.4346 41.9941 33.6522 41.8783 33.8233C41.759 33.9923 41.6797 34.105 41.6797 34.105Z" fill="white"/>
<path d="M45.1132 36.642C45.1132 36.642 44.9598 36.6526 44.7243 36.659C44.4902 36.6667 44.1804 36.6733 43.8748 36.6747C43.5682 36.6757 43.2687 36.6739 43.041 36.666C42.8125 36.6553 42.6602 36.6482 42.6602 36.6482C42.6602 36.6482 42.6852 36.6191 42.7291 36.5683C42.7726 36.5171 42.8375 36.4463 42.9068 36.3543C43.0487 36.1729 43.2377 35.9311 43.4269 35.6893C43.6165 35.4479 43.7847 35.1905 43.9204 35.0045C44.0532 34.8165 44.1417 34.6911 44.1417 34.6911C44.1417 34.6911 44.2927 34.6832 44.5168 34.6646C44.7416 34.6465 45.0436 34.6192 45.3491 34.5859C45.653 34.5522 45.9665 34.5163 46.1931 34.4807C46.4214 34.4442 46.5736 34.4199 46.5736 34.4199C46.5736 34.4199 46.4941 34.5661 46.3637 34.7786C46.2298 34.989 46.0514 35.2696 45.8729 35.5501C45.6969 35.8323 45.4942 36.0968 45.3535 36.3026C45.2093 36.5063 45.1132 36.642 45.1132 36.642Z" fill="white"/>
<path d="M38.6211 37.4086C38.6211 37.4086 38.69 37.9861 38.728 38.5796C38.7607 39.1614 38.7669 39.7646 38.7669 39.7646C38.7669 39.7646 38.8858 39.6723 39.0642 39.5336C39.1534 39.4643 39.2574 39.3835 39.369 39.2968C39.4761 39.2049 39.5904 39.1067 39.7047 39.0087C39.9309 38.8099 40.1662 38.6212 40.3279 38.4632C40.4917 38.3075 40.6008 38.2038 40.6008 38.2038C40.6008 38.2038 40.5824 38.0557 40.555 37.8336C40.5242 37.6106 40.4896 37.3254 40.4346 37.0295C40.3314 36.4416 40.2053 35.8789 40.2053 35.8789C40.2053 35.8789 40.1102 35.9785 39.9675 36.128C39.8257 36.2782 39.6376 36.4795 39.4335 36.6649C39.2326 36.8532 39.037 37.0474 38.8825 37.1844C38.7256 37.3189 38.6211 37.4086 38.6211 37.4086Z" fill="white"/>
<path d="M41.4202 40.6328C41.4202 40.6328 40.8054 40.5325 40.2109 40.4028C39.6058 40.2659 39.0273 40.1074 39.0273 40.1074C39.0273 40.1074 39.1485 40.0132 39.3303 39.8719C39.4212 39.8012 39.5272 39.7188 39.6409 39.6306C39.7502 39.5368 39.8666 39.437 39.9831 39.337C40.2137 39.1345 40.4533 38.9419 40.6182 38.781C40.7851 38.6224 40.8963 38.5166 40.8963 38.5166C40.8963 38.5166 41.046 38.5399 41.2706 38.5747C41.4942 38.6064 41.8047 38.655 42.1042 38.6831C42.7076 38.7463 43.3338 38.7843 43.3338 38.7843C43.3338 38.7843 43.2191 38.9048 43.047 39.0854C42.8754 39.2666 42.647 39.5087 42.4018 39.734C42.1596 39.9622 41.9219 40.1953 41.7353 40.3611C41.5463 40.5241 41.4202 40.6328 41.4202 40.6328Z" fill="white"/>
<path d="M34.9175 39.973C34.9175 39.973 34.902 40.1193 34.8786 40.3387C34.8528 40.5573 34.8103 40.8417 34.764 41.1335C34.6723 41.7141 34.5508 42.3096 34.5508 42.3096C34.5508 42.3096 35.0905 42.0417 35.6301 41.7738C35.893 41.6268 36.1561 41.4798 36.3533 41.3696C36.4519 41.3145 36.534 41.2686 36.5916 41.2364C36.6475 41.2016 36.6795 41.1817 36.6795 41.1817C36.6795 41.1817 36.7385 40.578 36.769 39.9926C36.7853 39.6995 36.7968 39.4116 36.7964 39.1877C36.7966 38.9677 36.7968 38.821 36.7968 38.821C36.7968 38.821 36.684 38.9002 36.515 39.0189C36.3399 39.1288 36.1064 39.2754 35.8728 39.4219C35.6428 39.574 35.3989 39.7034 35.2184 39.8047C35.0379 39.9057 34.9175 39.973 34.9175 39.973Z" fill="white"/>
<path d="M36.9499 43.728C36.9499 43.728 36.8072 43.6702 36.5933 43.5833C36.3799 43.4939 36.0944 43.3638 35.8167 43.2346C35.2587 42.9753 34.7305 42.7009 34.7305 42.7009C34.7305 42.7009 35.2802 42.428 35.83 42.155C36.0979 42.0052 36.3659 41.8555 36.5669 41.7432C36.6673 41.687 36.7511 41.6402 36.8097 41.6075C36.8668 41.5721 36.8994 41.5518 36.8994 41.5518C36.8994 41.5518 37.4543 41.7703 38.0379 41.9706C38.3289 42.0713 38.6264 42.1698 38.8455 42.2319C39.0679 42.2961 39.2162 42.3388 39.2162 42.3388C39.2162 42.3388 39.0798 42.434 38.8752 42.5767C38.6642 42.7095 38.3827 42.8866 38.1012 43.0638C37.8226 43.2458 37.5299 43.4034 37.3126 43.5255C37.0949 43.647 36.9499 43.728 36.9499 43.728Z" fill="white"/>
<path d="M38.1446 3.15042L35.032 2.46925L33.1797 0L36.1051 0.425631L38.1446 3.15042Z" fill="white"/>
<path d="M11.9385 5.71528C11.9385 5.71528 11.3855 5.55052 10.807 5.40811C10.2387 5.27229 9.64453 5.1587 9.64453 5.1587C9.64453 5.1587 9.75698 5.05851 9.9256 4.90816C10.0919 4.7552 10.3213 4.55991 10.5547 4.3694C10.7836 4.17343 11.025 3.99301 11.2031 3.85412C11.3805 3.71421 11.5032 3.62695 11.5032 3.62695C11.5032 3.62695 12.08 3.80079 12.6323 3.9988C13.1923 4.20191 13.7237 4.42318 13.7237 4.42318C13.7237 4.42318 13.6092 4.49989 13.4375 4.61506C13.2642 4.72774 13.0369 4.88376 12.8153 5.04761C12.5891 5.20523 12.3726 5.37589 12.2093 5.50263C12.0452 5.62813 11.9385 5.71528 11.9385 5.71528Z" fill="white"/>
<path d="M9.25446 2.39308C9.25446 2.39308 9.24913 3.02024 9.27148 3.62742C9.29872 4.2455 9.35182 4.84134 9.35182 4.84134C9.35182 4.84134 9.46643 4.73921 9.63822 4.58603C9.80775 4.43012 10.0415 4.2312 10.2793 4.03694C10.5126 3.83723 10.7586 3.65341 10.9402 3.51179C11.1211 3.36927 11.2461 3.28031 11.2461 3.28031C11.2461 3.28031 11.2553 2.6796 11.2957 2.06458C11.3381 1.4583 11.4092 0.833984 11.4092 0.833984C11.4092 0.833984 11.271 0.92635 11.0635 1.0649C10.8546 1.20118 10.5805 1.38954 10.3127 1.58687C10.0403 1.77784 9.77836 1.98299 9.58137 2.13607C9.38337 2.28801 9.25446 2.39308 9.25446 2.39308Z" fill="white"/>
<path d="M8.76692 8.91222C8.76692 8.91222 8.62144 8.90303 8.40335 8.88918C8.18389 8.87636 7.88807 8.86206 7.59622 8.85934C7.30245 8.85469 7.00458 8.85548 6.77946 8.85855C6.55286 8.86059 6.40625 8.86853 6.40625 8.86853C6.40625 8.86853 6.48965 8.74303 6.6248 8.56193C6.75971 8.38072 6.93128 8.1329 7.12146 7.89915C7.30699 7.66176 7.4932 7.42506 7.64219 7.2552C7.78812 7.08272 7.88536 6.96777 7.88536 6.96777C7.88536 6.96777 8.03253 6.97606 8.25777 6.99807C8.48188 7.01906 8.77803 7.05015 9.06942 7.08612C9.35911 7.11994 9.6529 7.16714 9.86895 7.20266C10.0842 7.23965 10.2276 7.26439 10.2276 7.26439C10.2276 7.26439 9.83922 7.65507 9.47407 8.06776C9.29025 8.27281 9.11698 8.48715 8.98183 8.64329C8.84975 8.80204 8.76692 8.91222 8.76692 8.91222Z" fill="white"/>
<path d="M5.42578 6.25464C5.42578 6.25464 5.45914 6.40624 5.50918 6.63375C5.56002 6.85978 5.6298 7.15742 5.71196 7.45585C5.79184 7.75303 5.87581 8.04488 5.9406 8.26115C6.00392 8.47663 6.05396 8.62211 6.05396 8.62211C6.05396 8.62211 6.13895 8.49422 6.27659 8.30972C6.414 8.12499 6.58898 7.87251 6.78278 7.63422C6.97183 7.3923 7.16178 7.15106 7.31349 6.97791C7.46225 6.80214 7.56142 6.68504 7.56142 6.68504C7.56142 6.68504 7.52784 6.53548 7.48778 6.31421C7.44648 6.09204 7.39405 5.79281 7.3464 5.48859C7.29647 5.18279 7.26027 4.8805 7.23327 4.6497C7.20785 4.41811 7.19083 4.26367 7.19083 4.26367C7.19083 4.26367 6.72151 4.73583 6.28056 5.23453C6.05861 5.48247 5.84835 5.74061 5.68586 5.93C5.52632 6.12199 5.42578 6.25464 5.42578 6.25464Z" fill="white"/>
<path d="M6.36871 12.7247C6.36871 12.7247 6.22449 12.7472 6.00798 12.7809C5.78887 12.8151 5.49997 12.8666 5.21527 12.9273C4.64179 13.0448 4.05469 13.1926 4.05469 13.1926C4.05469 13.1926 4.1146 13.0544 4.20436 12.847C4.29786 12.6414 4.4052 12.3592 4.5425 12.0908C4.79758 11.5447 5.08807 11.0166 5.08807 11.0166C5.08807 11.0166 5.23513 10.9955 5.45583 10.9639C5.67982 10.936 5.97644 10.9024 6.26953 10.8746C6.5624 10.8462 6.85198 10.8236 7.07393 10.8131C7.29282 10.8028 7.43874 10.7959 7.43874 10.7959C7.43874 10.7959 7.36544 10.9127 7.25549 11.0877C7.15177 11.2667 7.01357 11.5053 6.87536 11.7441C6.74589 11.9877 6.6163 12.2314 6.51928 12.4141C6.42896 12.6004 6.36871 12.7247 6.36871 12.7247Z" fill="white"/>
<path d="M2.53125 10.8527C2.53125 10.8527 2.59638 10.9933 2.69419 11.2042C2.79076 11.4127 2.92647 11.6895 3.07205 11.9635C3.35766 12.5112 3.65677 13.0285 3.65677 13.0285C3.65677 13.0285 3.71771 12.8877 3.80916 12.6764C3.90437 12.4669 4.01398 12.1796 4.15378 11.9061C4.41363 11.3497 4.70967 10.8117 4.70967 10.8117C4.70967 10.8117 4.64772 10.6728 4.55478 10.4644C4.46673 10.257 4.35144 9.97674 4.23956 9.69079C4.127 9.40484 4.01818 9.11333 3.94488 8.89592C3.87033 8.6759 3.82051 8.5293 3.82051 8.5293C3.82051 8.5293 3.73234 8.67023 3.60004 8.88174C3.4751 9.09745 3.30853 9.3851 3.14195 9.67275C2.98604 9.96618 2.83013 10.2595 2.71314 10.4795C2.60399 10.7035 2.53125 10.8527 2.53125 10.8527Z" fill="white"/>
<path d="M4.83655 16.9652C4.83655 16.9652 4.69562 17.015 4.49704 17.0973C4.29631 17.1788 4.0275 17.2917 3.75721 17.4111C3.48704 17.5303 3.21527 17.656 3.01091 17.7533C2.81211 17.8534 2.67969 17.9201 2.67969 17.9201C2.67969 17.9201 2.68559 17.8829 2.69591 17.8179C2.70454 17.7526 2.72349 17.6603 2.74732 17.5499C2.79373 17.3288 2.85557 17.034 2.91752 16.7393C2.98277 16.4452 3.06765 16.1559 3.12245 15.9368C3.17987 15.7182 3.21811 15.5727 3.21811 15.5727C3.21811 15.5727 3.35791 15.519 3.57135 15.4441C3.7841 15.3689 4.06653 15.2724 4.34681 15.1824C4.62788 15.0923 4.90395 15.0077 5.11433 14.9486C5.32777 14.8922 5.47006 14.8545 5.47006 14.8545C5.47006 14.8545 5.45792 14.8867 5.4367 14.9432C5.41537 14.9997 5.3836 15.08 5.35443 15.1791C5.29191 15.3762 5.20851 15.6389 5.12522 15.9017C5.03762 16.1633 4.98123 16.4336 4.92449 16.6322C4.87173 16.832 4.83655 16.9652 4.83655 16.9652Z" fill="white"/>
<path d="M0.6875 15.9626C0.6875 15.9626 0.775554 16.0864 0.922613 16.2713C1.06752 16.4557 1.26178 16.6975 1.45763 16.9327C1.65337 17.1683 1.85058 17.3973 1.99912 17.5659C2.15378 17.734 2.25693 17.846 2.25693 17.846C2.25693 17.846 2.26294 17.8081 2.27349 17.7419C2.28234 17.6753 2.30163 17.5813 2.32592 17.4687C2.37323 17.2434 2.43632 16.943 2.49941 16.6426C2.56591 16.343 2.65226 16.048 2.7082 15.8248C2.76675 15.6021 2.80579 15.4537 2.80579 15.4537C2.80579 15.4537 2.71512 15.333 2.58542 15.1494C2.45493 14.9656 2.28212 14.7165 2.11157 14.4611C1.94148 14.2062 1.77093 13.944 1.64849 13.7461C1.53025 13.548 1.45151 13.4158 1.45151 13.4158C1.45151 13.4158 1.43698 13.4547 1.41168 13.5228C1.38626 13.5909 1.3487 13.6878 1.31262 13.8072C1.23716 14.045 1.13651 14.3619 1.03586 14.6788C0.931917 14.9947 0.86043 15.3204 0.792915 15.5605C0.729711 15.8017 0.6875 15.9626 0.6875 15.9626Z" fill="white"/>
<path d="M4.26859 21.4311C4.26859 21.4311 3.78589 21.7494 3.30227 22.1018C2.83522 22.4506 2.37045 22.8333 2.37045 22.8333C2.37045 22.8333 2.36443 22.6829 2.35558 22.4571C2.3414 22.2314 2.34185 21.9302 2.34718 21.6291C2.35195 21.3279 2.34639 21.0264 2.36602 20.8012C2.37918 20.5757 2.38792 20.4254 2.38792 20.4254C2.38792 20.4254 2.51285 20.3442 2.70019 20.2226C2.88663 20.1024 3.13524 19.9465 3.39623 19.7983C3.9115 19.4994 4.42235 19.2344 4.42235 19.2344C4.42235 19.2344 4.40771 19.3713 4.3857 19.5767C4.36663 19.7823 4.3251 20.0551 4.31625 20.3307C4.30003 20.6057 4.28391 20.8807 4.27177 21.0869C4.26984 21.2933 4.26859 21.4311 4.26859 21.4311Z" fill="white"/>
<path d="M0 21.357C0 21.357 0.476012 21.7634 0.952932 22.1359C1.44631 22.5113 1.94093 22.8529 1.94093 22.8529C1.94093 22.8529 1.93491 22.6995 1.92572 22.4695C1.91142 22.2395 1.91176 21.9325 1.9171 21.6256C1.92186 21.3186 1.91653 21.0115 1.93627 20.7818C1.94966 20.5519 1.95863 20.3987 1.95863 20.3987C1.95863 20.3987 1.84425 20.299 1.67279 20.1493C1.50054 19.9979 1.27167 19.7921 1.05653 19.5805C0.618986 19.1587 0.185979 18.7031 0.185979 18.7031C0.185979 18.7031 0.168051 18.8686 0.141045 19.1166C0.117329 19.365 0.0703522 19.695 0.05753 20.0277C0.0383533 20.3599 0.0191767 20.692 0.0047658 20.9412C0.00192901 21.1906 0 21.357 0 21.357Z" fill="white"/>
<path d="M4.68212 25.9166C4.68212 25.9166 4.57637 26.0214 4.42908 26.1808C4.28214 26.34 4.08685 26.5563 3.89293 26.7792C3.69901 27.0017 3.50644 27.2308 3.3629 27.4055C3.22504 27.5805 3.13312 27.6972 3.13312 27.6972C3.13312 27.6972 3.08615 27.5538 3.0377 27.333C2.98573 27.1131 2.91639 26.82 2.84695 26.5269C2.78511 26.2322 2.73473 25.9351 2.69183 25.7132C2.65019 25.4912 2.625 25.3427 2.625 25.3427C2.625 25.3427 3.05018 24.9097 3.47967 24.5103C3.69401 24.3096 3.90779 24.1158 4.07936 23.9722C4.24764 23.8307 4.35986 23.7363 4.35986 23.7363C4.35986 23.7363 4.37178 23.8736 4.38959 24.0796C4.41762 24.2844 4.45495 24.5575 4.49228 24.8306C4.52292 25.1048 4.58397 25.3742 4.61937 25.5779C4.65693 25.7811 4.68212 25.9166 4.68212 25.9166Z" fill="white"/>
<path d="M0.498809 26.7706C0.498809 26.7706 0.631684 26.8451 0.840925 26.9504C1.05051 27.0557 1.32919 27.1921 1.60651 27.3219C1.88384 27.4521 2.1598 27.5757 2.36598 27.6654C2.57703 27.7522 2.71774 27.8099 2.71774 27.8099C2.71774 27.8099 2.66997 27.6638 2.62049 27.4389C2.5675 27.2149 2.49681 26.9161 2.42623 26.6175C2.36314 26.3171 2.31174 26.0144 2.26805 25.7883C2.22561 25.5621 2.19997 25.4108 2.19997 25.4108C2.19997 25.4108 1.6763 25.1258 1.14843 24.8072C0.884385 24.6489 0.618408 24.484 0.429705 24.356C0.237484 24.2267 0.109375 24.1406 0.109375 24.1406C0.109375 24.1406 0.12424 24.3063 0.14648 24.5547C0.180068 24.8018 0.224662 25.1313 0.26937 25.4608C0.308291 25.7912 0.379097 26.1164 0.422329 26.3619C0.468285 26.6072 0.498809 26.7706 0.498809 26.7706Z" fill="white"/>
<path d="M6.05988 30.2084C6.05988 30.2084 5.75283 30.7029 5.46779 31.2241C5.19115 31.7376 4.92937 32.2814 4.92937 32.2814C4.92937 32.2814 4.86106 32.1471 4.75848 31.9458C4.70719 31.8452 4.64739 31.7277 4.58328 31.6019C4.52507 31.4733 4.46289 31.336 4.40071 31.1988C4.14301 30.6538 3.92969 30.0901 3.92969 30.0901C3.92969 30.0901 4.00878 29.9637 4.12747 29.7741C4.24775 29.5856 4.40343 29.3404 4.57772 29.0955C4.9187 28.6065 5.26967 28.1494 5.26967 28.1494C5.26967 28.1494 5.31415 28.2799 5.38087 28.4758C5.44839 28.6713 5.53054 28.9349 5.63777 29.1892C5.74035 29.4451 5.83748 29.7034 5.91782 29.894C6.00304 30.0826 6.05988 30.2084 6.05988 30.2084Z" fill="white"/>
<path d="M2.15872 31.9431C2.15872 31.9431 2.75773 32.1123 3.35187 32.2464C3.95735 32.3788 4.54808 32.4809 4.54808 32.4809C4.54808 32.4809 4.47841 32.3442 4.37402 32.139C4.32182 32.0365 4.26088 31.9168 4.19564 31.7885C4.13629 31.6575 4.07286 31.5177 4.00955 31.378C3.74709 30.8227 3.52956 30.2483 3.52956 30.2483C3.52956 30.2483 3.38398 30.2061 3.16566 30.1429C2.94779 30.0777 2.64959 29.9892 2.36569 29.8883C1.79141 29.6912 1.20703 29.4619 1.20703 29.4619C1.20703 29.4619 1.26048 29.6193 1.34059 29.8553C1.42183 30.091 1.52294 30.4078 1.65036 30.715C1.77303 31.0238 1.89172 31.3344 1.98862 31.5641C2.09063 31.7915 2.15872 31.9431 2.15872 31.9431Z" fill="white"/>
<path d="M8.32099 34.105C8.32099 34.105 8.2706 34.2436 8.20547 34.4492C8.13875 34.6557 8.05229 34.9344 7.96979 35.2186C7.88787 35.5018 7.80696 35.7931 7.75329 36.0097C7.70245 36.2261 7.66864 36.3704 7.66864 36.3704C7.66864 36.3704 7.64402 36.3419 7.6009 36.2919C7.55823 36.2418 7.49446 36.1724 7.4266 36.082C7.28749 35.9041 7.10185 35.6668 6.91632 35.4295C6.73023 35.1926 6.56536 34.9399 6.43214 34.7575C6.30176 34.573 6.21484 34.45 6.21484 34.45C6.21484 34.45 6.2633 34.3085 6.34295 34.0967C6.42182 33.8854 6.52916 33.6071 6.64002 33.3347C6.85528 32.7912 7.11104 32.2627 7.11104 32.2627C7.11104 32.2627 7.17629 32.3843 7.28442 32.5604C7.39551 32.7348 7.54359 32.9674 7.69167 33.1999C7.83646 33.4346 8.00667 33.6522 8.12241 33.8233C8.24156 33.9923 8.32099 34.105 8.32099 34.105Z" fill="white"/>
<path d="M4.88616 36.642C4.88616 36.642 5.03957 36.6526 5.27502 36.659C5.50911 36.6667 5.81889 36.6733 6.12458 36.6747C6.43118 36.6757 6.73063 36.6739 6.95837 36.666C7.18679 36.6553 7.33918 36.6482 7.33918 36.6482C7.33918 36.6482 7.3141 36.6191 7.27019 36.5683C7.22673 36.5171 7.16182 36.4463 7.09249 36.3543C6.95065 36.1729 6.76161 35.9311 6.57245 35.6893C6.38284 35.4479 6.21468 35.1905 6.07897 35.0045C5.94609 34.8165 5.85758 34.6911 5.85758 34.6911C5.85758 34.6911 5.70667 34.6832 5.48256 34.6646C5.25778 34.6465 4.95572 34.6192 4.65025 34.5859C4.34637 34.5522 4.03285 34.5163 3.80625 34.4807C3.57795 34.4442 3.42578 34.4199 3.42578 34.4199C3.42578 34.4199 3.50521 34.5661 3.63559 34.7786C3.76949 34.989 3.94798 35.2696 4.12647 35.5501C4.30246 35.8323 4.50512 36.0968 4.64583 36.3026C4.79005 36.5063 4.88616 36.642 4.88616 36.642Z" fill="white"/>
<path d="M11.3782 37.4086C11.3782 37.4086 11.3092 37.9861 11.2713 38.5796C11.2386 39.1614 11.2324 39.7646 11.2324 39.7646C11.2324 39.7646 11.1134 39.6723 10.9351 39.5336C10.8459 39.4643 10.7418 39.3835 10.6303 39.2968C10.5232 39.2049 10.4089 39.1067 10.2945 39.0087C10.0684 38.8099 9.83303 38.6212 9.67134 38.4632C9.5076 38.3075 9.39844 38.2038 9.39844 38.2038C9.39844 38.2038 9.41682 38.0557 9.44428 37.8336C9.47503 37.6106 9.50964 37.3254 9.56467 37.0295C9.66782 36.4416 9.794 35.8789 9.794 35.8789C9.794 35.8789 9.88909 35.9785 10.0317 36.128C10.1736 36.2782 10.3617 36.4795 10.5657 36.6649C10.7667 36.8532 10.9623 37.0474 11.1167 37.1844C11.2737 37.3189 11.3782 37.4086 11.3782 37.4086Z" fill="white"/>
<path d="M8.58155 40.6328C8.58155 40.6328 9.19634 40.5325 9.79093 40.4028C10.396 40.2659 10.9744 40.1074 10.9744 40.1074C10.9744 40.1074 10.8532 40.0132 10.6715 39.8719C10.5806 39.8012 10.4746 39.7188 10.3609 39.6306C10.2516 39.5368 10.1352 39.437 10.0187 39.337C9.78809 39.1345 9.54844 38.9419 9.38356 38.781C9.21665 38.6224 9.10545 38.5166 9.10545 38.5166C9.10545 38.5166 8.95578 38.5399 8.73122 38.5747C8.50757 38.6064 8.19711 38.655 7.89754 38.6831C7.29422 38.7463 6.66797 38.7843 6.66797 38.7843C6.66797 38.7843 6.78269 38.9048 6.95482 39.0854C7.12639 39.2666 7.35481 39.5087 7.60002 39.734C7.84217 39.9622 8.07989 40.1953 8.26644 40.3611C8.4556 40.5241 8.58155 40.6328 8.58155 40.6328Z" fill="white"/>
<path d="M15.0823 39.973C15.0823 39.973 15.0979 40.1193 15.1212 40.3387C15.147 40.5573 15.1896 40.8417 15.2358 41.1335C15.3275 41.7141 15.4492 42.3096 15.4492 42.3096C15.4492 42.3096 14.9095 42.0417 14.3698 41.7738C14.1069 41.6268 13.8439 41.4798 13.6467 41.3696C13.5481 41.3145 13.4659 41.2686 13.4084 41.2364C13.3525 41.2016 13.3205 41.1817 13.3205 41.1817C13.3205 41.1817 13.2614 40.578 13.2309 39.9926C13.2147 39.6995 13.2031 39.4116 13.2036 39.1877C13.2034 38.9677 13.2031 38.821 13.2031 38.821C13.2031 38.821 13.3159 38.9002 13.485 39.0189C13.6601 39.1288 13.8936 39.2754 14.1271 39.4219C14.3571 39.574 14.6011 39.7034 14.7815 39.8047C14.962 39.9057 15.0823 39.973 15.0823 39.973Z" fill="white"/>
<path d="M13.0476 43.728C13.0476 43.728 13.1902 43.6702 13.4041 43.5833C13.6176 43.4939 13.9031 43.3638 14.1807 43.2346C14.7388 42.9753 15.267 42.7009 15.267 42.7009C15.267 42.7009 14.7172 42.428 14.1675 42.155C13.8996 42.0052 13.6315 41.8555 13.4306 41.7432C13.3302 41.687 13.2464 41.6402 13.1878 41.6075C13.1307 41.5721 13.0981 41.5518 13.0981 41.5518C13.0981 41.5518 12.5431 41.7703 11.9595 41.9706C11.6686 42.0713 11.3711 42.1698 11.152 42.2319C10.9296 42.2961 10.7812 42.3388 10.7812 42.3388C10.7812 42.3388 10.9176 42.434 11.1222 42.5767C11.3333 42.7095 11.6148 42.8866 11.8962 43.0638C12.1749 43.2458 12.4675 43.4034 12.6848 43.5255C12.9025 43.647 13.0476 43.728 13.0476 43.728Z" fill="white"/>
<path d="M11.8555 3.15042L14.9681 2.46925L16.8204 0L13.8951 0.425631L11.8555 3.15042Z" fill="white"/>
<path d="M33.657 43.0098L33.9732 40.3389C27.9406 43.6124 19.8952 42.5055 16.0207 40.3389L16.3369 43.0098L13.75 44.2606C20.7183 48.0969 30.7943 47.8698 36.2439 44.2606L33.657 43.0098Z" fill="white"/>
<path d="M23.0909 33.0695C18.9746 32.0146 17.4893 33.1775 16.9932 33.8601C16.801 34.1246 16.799 34.482 16.9899 34.7476C17.656 35.6742 19.6552 36.9332 21.9176 37.1425C21.4482 36.2523 21.4385 35.2373 21.4385 35.2373C22.3621 38.4831 26.8402 38.6258 28.388 37.6989C27.9983 37.2465 27.8236 36.761 27.8236 36.761C30.3348 38.5005 35.1219 35.6618 35.9002 34.3709C35.0671 34.4132 34.4956 33.9174 34.4956 33.9174C35.739 34.03 37.3629 33.7034 38.6251 30.9486C37.4306 30.7244 33.9307 29.8019 31.9952 31.8528C31.9539 31.8965 31.9535 30.7476 34.0928 30.4234C30.2301 27.9272 26.0757 29.6163 25.1888 30.8078C25.0473 30.5371 25.9655 29.2231 27.4006 29.1877C23.368 27.7379 19.8489 28.5694 18.742 30.2155C18.6869 30.2273 18.7214 29.6992 19.4301 28.9799C18.5094 29.5257 17.5448 30.2796 16.7867 31.4943C16.4079 30.0091 15.3134 30.5015 15.3134 30.5015C15.8947 30.725 15.9983 31.4202 16.0675 32.2176C14.2061 33.5391 13.1275 35.8991 13.1275 35.8991L12.9375 36.8506C12.9375 36.8506 14.3393 34.2043 16.6118 32.8525C21.5645 29.9065 24.0395 34.0965 30.9431 33.367C30.9434 33.3671 28.671 34.4996 23.0909 33.0695Z" fill="#B68C5A"/>
</g>
<path d="M59.6 14H69.44V15.14C69.02 15.36 68.55 15.55 68.03 15.71C67.53 15.85 67.04 15.95 66.56 16.01V33.05H72.35L74.36 27.68H75.59C75.67 28.14 75.74 28.68 75.8 29.3C75.88 29.92 75.94 30.57 75.98 31.25C76.02 31.93 76.05 32.6 76.07 33.26C76.09 33.92 76.09 34.5 76.07 35H59.6V33.86C60.06 33.62 60.49 33.43 60.89 33.29C61.31 33.15 61.7 33.05 62.06 32.99V16.01C61.08 15.85 60.26 15.56 59.6 15.14V14ZM90.5902 30.65C90.5902 31.09 90.5902 31.47 90.5902 31.79C90.6102 32.11 90.6402 32.45 90.6802 32.81L92.7502 33.11V34.16C92.5102 34.28 92.1802 34.4 91.7602 34.52C91.3602 34.64 90.9302 34.76 90.4702 34.88C90.0302 34.98 89.5902 35.06 89.1502 35.12C88.7102 35.2 88.3202 35.26 87.9802 35.3H86.9602C86.7602 34.84 86.6402 34.38 86.6002 33.92C86.5602 33.46 86.5302 32.9 86.5102 32.24H86.3602C86.2602 32.64 86.0902 33.03 85.8502 33.41C85.6102 33.77 85.3002 34.1 84.9202 34.4C84.5602 34.68 84.1302 34.91 83.6302 35.09C83.1302 35.27 82.5702 35.36 81.9502 35.36C81.2902 35.36 80.6802 35.26 80.1202 35.06C79.5602 34.86 79.0702 34.58 78.6502 34.22C78.2302 33.86 77.9002 33.43 77.6602 32.93C77.4202 32.41 77.3002 31.83 77.3002 31.19C77.3002 30.29 77.4702 29.55 77.8102 28.97C78.1502 28.39 78.6802 27.92 79.4002 27.56C80.1402 27.18 81.0802 26.9 82.2202 26.72C83.3802 26.54 84.7802 26.41 86.4202 26.33C86.5802 24.61 86.5102 23.35 86.2102 22.55C85.9102 21.75 85.2602 21.35 84.2602 21.35C83.6402 21.35 83.0702 21.45 82.5502 21.65L81.1402 25.25H79.8202C79.6602 25.01 79.5002 24.74 79.3402 24.44C79.2002 24.12 79.0602 23.79 78.9202 23.45C78.8002 23.09 78.6902 22.73 78.5902 22.37C78.5102 22.01 78.4502 21.66 78.4102 21.32C79.1702 20.8 80.1502 20.39 81.3502 20.09C82.5502 19.79 83.8202 19.64 85.1602 19.64C86.3002 19.64 87.2302 19.77 87.9502 20.03C88.6702 20.27 89.2302 20.61 89.6302 21.05C90.0502 21.47 90.3402 21.97 90.5002 22.55C90.6602 23.13 90.7402 23.75 90.7402 24.41C90.7402 25.61 90.7102 26.7 90.6502 27.68C90.6102 28.64 90.5902 29.63 90.5902 30.65ZM83.8402 32.96C84.2602 32.96 84.6202 32.88 84.9202 32.72C85.2202 32.56 85.4702 32.37 85.6702 32.15C85.8902 31.93 86.0502 31.69 86.1502 31.43C86.2702 31.17 86.3602 30.94 86.4202 30.74V27.74C85.4802 27.76 84.7102 27.82 84.1102 27.92C83.5102 28.02 83.0402 28.19 82.7002 28.43C82.3602 28.65 82.1202 28.94 81.9802 29.3C81.8602 29.64 81.8002 30.06 81.8002 30.56C81.8002 31.32 81.9802 31.91 82.3402 32.33C82.7002 32.75 83.2002 32.96 83.8402 32.96ZM99.1895 35.36L94.4795 21.89C94.1995 21.79 93.9195 21.69 93.6395 21.59C93.3795 21.47 93.1295 21.33 92.8895 21.17V20H100.479V21.14C100.199 21.3 99.9195 21.45 99.6395 21.59C99.3595 21.71 99.0695 21.81 98.7695 21.89L100.839 29.57L101.229 31.88H101.289L101.829 29.48L105.009 20.18L106.479 20L109.899 29.51L110.529 31.88H110.589L111.069 29.54L112.869 21.89C112.649 21.85 112.389 21.77 112.089 21.65C111.809 21.53 111.519 21.37 111.219 21.17V20H117.009V21.17C116.589 21.45 116.019 21.69 115.299 21.89L111.129 35L108.309 35.36L105.729 27.95L105.159 25.46H105.069L104.379 27.95L101.979 35L99.1895 35.36ZM130.815 30.65C130.815 31.09 130.815 31.47 130.815 31.79C130.835 32.11 130.865 32.45 130.905 32.81L132.975 33.11V34.16C132.735 34.28 132.405 34.4 131.985 34.52C131.585 34.64 131.155 34.76 130.695 34.88C130.255 34.98 129.815 35.06 129.375 35.12C128.935 35.2 128.545 35.26 128.205 35.3H127.185C126.985 34.84 126.865 34.38 126.825 33.92C126.785 33.46 126.755 32.9 126.735 32.24H126.585C126.485 32.64 126.315 33.03 126.075 33.41C125.835 33.77 125.525 34.1 125.145 34.4C124.785 34.68 124.355 34.91 123.855 35.09C123.355 35.27 122.795 35.36 122.175 35.36C121.515 35.36 120.905 35.26 120.345 35.06C119.785 34.86 119.295 34.58 118.875 34.22C118.455 33.86 118.125 33.43 117.885 32.93C117.645 32.41 117.525 31.83 117.525 31.19C117.525 30.29 117.695 29.55 118.035 28.97C118.375 28.39 118.905 27.92 119.625 27.56C120.365 27.18 121.305 26.9 122.445 26.72C123.605 26.54 125.005 26.41 126.645 26.33C126.805 24.61 126.735 23.35 126.435 22.55C126.135 21.75 125.485 21.35 124.485 21.35C123.865 21.35 123.295 21.45 122.775 21.65L121.365 25.25H120.045C119.885 25.01 119.725 24.74 119.565 24.44C119.425 24.12 119.285 23.79 119.145 23.45C119.025 23.09 118.915 22.73 118.815 22.37C118.735 22.01 118.675 21.66 118.635 21.32C119.395 20.8 120.375 20.39 121.575 20.09C122.775 19.79 124.045 19.64 125.385 19.64C126.525 19.64 127.455 19.77 128.175 20.03C128.895 20.27 129.455 20.61 129.855 21.05C130.275 21.47 130.565 21.97 130.725 22.55C130.885 23.13 130.965 23.75 130.965 24.41C130.965 25.61 130.935 26.7 130.875 27.68C130.835 28.64 130.815 29.63 130.815 30.65ZM124.065 32.96C124.485 32.96 124.845 32.88 125.145 32.72C125.445 32.56 125.695 32.37 125.895 32.15C126.115 31.93 126.275 31.69 126.375 31.43C126.495 31.17 126.585 30.94 126.645 30.74V27.74C125.705 27.76 124.935 27.82 124.335 27.92C123.735 28.02 123.265 28.19 122.925 28.43C122.585 28.65 122.345 28.94 122.205 29.3C122.085 29.64 122.025 30.06 122.025 30.56C122.025 31.32 122.205 31.91 122.565 32.33C122.925 32.75 123.425 32.96 124.065 32.96ZM147.094 32.57C146.954 32.97 146.724 33.34 146.404 33.68C146.084 34 145.694 34.29 145.234 34.55C144.794 34.81 144.284 35.01 143.704 35.15C143.144 35.29 142.554 35.36 141.934 35.36C140.614 35.36 139.474 35.18 138.514 34.82C137.574 34.44 136.794 33.91 136.174 33.23C135.554 32.53 135.094 31.7 134.794 30.74C134.494 29.76 134.344 28.68 134.344 27.5C134.344 24.96 135.034 23.02 136.414 21.68C137.814 20.32 139.794 19.64 142.354 19.64C143.334 19.64 144.234 19.75 145.054 19.97C145.874 20.17 146.554 20.41 147.094 20.69C147.054 21.03 146.994 21.41 146.914 21.83C146.854 22.23 146.774 22.64 146.674 23.06C146.594 23.46 146.494 23.86 146.374 24.26C146.254 24.64 146.134 24.96 146.014 25.22H144.544L143.284 21.65C143.144 21.55 142.994 21.48 142.834 21.44C142.674 21.38 142.434 21.35 142.114 21.35C141.594 21.35 141.144 21.45 140.764 21.65C140.384 21.83 140.054 22.15 139.774 22.61C139.514 23.07 139.314 23.68 139.174 24.44C139.054 25.2 138.994 26.14 138.994 27.26C138.994 28.08 139.084 28.84 139.264 29.54C139.444 30.22 139.714 30.82 140.074 31.34C140.454 31.84 140.924 32.24 141.484 32.54C142.044 32.82 142.704 32.96 143.464 32.96C144.164 32.96 144.774 32.86 145.294 32.66C145.814 32.46 146.254 32.22 146.614 31.94L147.094 32.57ZM162.086 32.48C161.926 32.82 161.666 33.17 161.306 33.53C160.966 33.87 160.536 34.18 160.016 34.46C159.516 34.72 158.926 34.93 158.246 35.09C157.586 35.27 156.866 35.36 156.086 35.36C154.846 35.36 153.746 35.18 152.786 34.82C151.826 34.44 151.026 33.91 150.386 33.23C149.746 32.53 149.256 31.7 148.916 30.74C148.596 29.78 148.436 28.7 148.436 27.5C148.436 24.94 149.106 22.99 150.446 21.65C151.786 20.31 153.646 19.64 156.026 19.64C157.046 19.64 157.996 19.78 158.876 20.06C159.776 20.34 160.516 20.8 161.096 21.44C161.696 22.08 162.106 22.92 162.326 23.96C162.566 25 162.556 26.27 162.296 27.77H153.086C153.106 29.35 153.506 30.61 154.286 31.55C155.086 32.49 156.256 32.96 157.796 32.96C158.456 32.96 159.136 32.86 159.836 32.66C160.556 32.46 161.116 32.2 161.516 31.88L162.086 32.48ZM155.906 21.35C155.506 21.35 155.146 21.42 154.826 21.56C154.526 21.7 154.256 21.96 154.016 22.34C153.796 22.7 153.616 23.2 153.476 23.84C153.336 24.46 153.236 25.25 153.176 26.21H158.006C158.146 24.65 158.056 23.45 157.736 22.61C157.416 21.77 156.806 21.35 155.906 21.35Z" fill="white"/>
</svg>
