<svg width="150" height="40" viewBox="0 0 150 40" fill="none" xmlns="http://www.w3.org/2000/svg">
<path d="M150 20C150 24.2839 149.171 27.9151 147.512 30.8935C145.853 33.872 143.607 36.1343 140.775 37.6806C137.955 39.2269 134.791 40 131.282 40C127.76 40 124.589 39.2205 121.769 37.6616C118.95 36.1027 116.71 33.8403 115.052 30.8745C113.406 27.8961 112.583 24.2712 112.583 20C112.583 15.7161 113.406 12.0849 115.052 9.10646C116.71 6.12801 118.95 3.86565 121.769 2.31939C124.589 0.773131 127.76 0 131.282 0C134.791 0 137.955 0.773131 140.775 2.31939C143.607 3.86565 145.853 6.12801 147.512 9.10646C149.171 12.0849 150 15.7161 150 20ZM140.315 20C140.315 17.4651 139.952 15.3232 139.225 13.5741C138.51 11.8251 137.476 10.5006 136.124 9.60076C134.784 8.70089 133.17 8.25095 131.282 8.25095C129.406 8.25095 127.792 8.70089 126.439 9.60076C125.087 10.5006 124.047 11.8251 123.32 13.5741C122.605 15.3232 122.248 17.4651 122.248 20C122.248 22.5349 122.605 24.6768 123.32 26.4259C124.047 28.1749 125.087 29.4994 126.439 30.3992C127.792 31.2991 129.406 31.749 131.282 31.749C133.17 31.749 134.784 31.2991 136.124 30.3992C137.476 29.4994 138.51 28.1749 139.225 26.4259C139.952 24.6768 140.315 22.5349 140.315 20Z" fill="#060305"/>
<path d="M97.41 13.251C97.1931 12.4525 96.8741 11.749 96.453 11.1407C96.032 10.5196 95.5152 9.99366 94.9027 9.56274C94.2903 9.13181 93.5885 8.80862 92.7974 8.59316C92.0063 8.36502 91.1387 8.25095 90.1945 8.25095C88.2933 8.25095 86.6473 8.70722 85.2565 9.61977C83.8785 10.5323 82.813 11.8631 82.0602 13.6122C81.3074 15.3485 80.931 17.4588 80.931 19.943C80.931 22.4398 81.2947 24.5691 82.0219 26.3308C82.7492 28.0925 83.8019 29.436 85.1799 30.3612C86.558 31.2864 88.2295 31.749 90.1945 31.749C91.9298 31.749 93.3971 31.4702 94.5965 30.9125C95.8087 30.3422 96.7274 29.5374 97.3526 28.4981C97.9778 27.4588 98.2904 26.2357 98.2904 24.8289L100.051 25.038H90.5198V18.1749H107.42V23.327C107.42 26.8124 106.673 29.7972 105.181 32.2814C103.7 34.7655 101.659 36.673 99.056 38.0038C96.4658 39.3346 93.4864 40 90.1179 40C86.3793 40 83.0938 39.1952 80.2611 37.5856C77.4285 35.9759 75.2211 33.6819 73.6389 30.7034C72.0567 27.7123 71.2656 24.1635 71.2656 20.057C71.2656 16.8631 71.7441 14.0304 72.7011 11.5589C73.658 9.07478 74.9914 6.97085 76.7012 5.24715C78.4238 3.52345 80.4142 2.218 82.6727 1.3308C84.9439 0.443599 87.3874 0 90.0031 0C92.2743 0 94.386 0.323194 96.3382 0.969583C98.3032 1.61597 100.038 2.52852 101.544 3.70723C103.062 4.88593 104.294 6.28644 105.238 7.90875C106.182 9.53105 106.769 11.3118 106.999 13.251H97.41Z" fill="#060305"/>
<path d="M66.1553 20C66.1553 24.2839 65.3259 27.9151 63.6671 30.8935C62.0084 33.872 59.7627 36.1343 56.9301 37.6806C54.1102 39.2269 50.9458 40 47.437 40C43.9153 40 40.7446 39.2205 37.9247 37.6616C35.1048 36.1027 32.8655 33.8403 31.2068 30.8745C29.5608 27.8961 28.7378 24.2712 28.7378 20C28.7378 15.7161 29.5608 12.0849 31.2068 9.10646C32.8655 6.12801 35.1048 3.86565 37.9247 2.31939C40.7446 0.773131 43.9153 0 47.437 0C50.9458 0 54.1102 0.773131 56.9301 2.31939C59.7627 3.86565 62.0084 6.12801 63.6671 9.10646C65.3259 12.0849 66.1553 15.7161 66.1553 20ZM56.4707 20C56.4707 17.4651 56.1071 15.3232 55.3798 13.5741C54.6653 11.8251 53.6317 10.5006 52.2792 9.60076C50.9395 8.70089 49.3254 8.25095 47.437 8.25095C45.5613 8.25095 43.9472 8.70089 42.5947 9.60076C41.2422 10.5006 40.2023 11.8251 39.475 13.5741C38.7604 15.3232 38.4032 17.4651 38.4032 20C38.4032 22.5349 38.7604 24.6768 39.475 26.4259C40.2023 28.1749 41.2422 29.4994 42.5947 30.3992C43.9472 31.2991 45.5613 31.749 47.437 31.749C49.3254 31.749 50.9395 31.2991 52.2792 30.3992C53.6317 29.4994 54.6653 28.1749 55.3798 26.4259C56.1071 24.6768 56.4707 22.5349 56.4707 20Z" fill="#060305"/>
<path d="M0 39.4691V0.533691H9.47399V31.8265H25.7807V39.4691H0Z" fill="#060305"/>
</svg>
