<svg width="19" height="16" viewBox="0 0 19 16" fill="none" xmlns="http://www.w3.org/2000/svg">
<path d="M1.51939 6.6905C1.59304 6.67811 1.66758 6.6724 1.74215 6.6734L14.4408 6.6734L14.1639 6.53991C13.8932 6.40714 13.647 6.22643 13.4362 6.00597L9.87523 2.31505C9.40623 1.85102 9.32743 1.10454 9.68848 0.546353C10.1087 -0.0484566 10.9146 -0.177605 11.4885 0.257938C11.5348 0.293145 11.5789 0.331522 11.6203 0.37282L18.0598 7.04716C18.563 7.56818 18.5635 8.41336 18.0608 8.93496C18.0605 8.93529 18.0601 8.93567 18.0598 8.936L11.6203 15.6103C11.1167 16.1309 10.3012 16.1297 9.79896 15.6077C9.75944 15.5666 9.72253 15.5229 9.68848 15.4769C9.32743 14.9187 9.40623 14.1722 9.87523 13.7082L13.4298 10.0106C13.6188 9.81451 13.836 9.65012 14.0738 9.52335L14.4601 9.34314L1.81303 9.34314C1.15512 9.36846 0.577899 8.89212 0.454302 8.22185C0.340444 7.49414 0.817287 6.80856 1.51939 6.6905Z" fill="#B68C5A"/>
</svg>
