<svg width="20" height="17" viewBox="0 0 20 17" fill="none" xmlns="http://www.w3.org/2000/svg">
<path d="M0.585985 14.7333H3.51567V16.4333C3.51567 16.7463 3.77801 17 4.1016 17H19.4141C19.7377 17 20 16.7463 20 16.4333V1.7C20 1.38705 19.7377 1.13333 19.4141 1.13333H16.4844V0.566667C16.4844 0.253716 16.222 0 15.8984 0C15.5749 0 15.3125 0.253716 15.3125 0.566667V1.13333H12.3438V0.566667C12.3438 0.253716 12.0814 0 11.7578 0C11.4342 0 11.1719 0.253716 11.1719 0.566667V1.13333H8.24222V0.566667C8.24222 0.253716 7.97987 0 7.65628 0C7.33269 0 7.07034 0.253716 7.07034 0.566667V1.13333H4.1016C3.77801 1.13333 3.51567 1.38705 3.51567 1.7V5.1C3.51567 9.27633 1.72094 12.4892 0.210869 13.7314C0.0213379 13.8841 -0.0489354 14.1352 0.0350097 14.3596C0.119033 14.5839 0.339267 14.7333 0.585985 14.7333ZM18.8281 15.8667H4.68754V14.7333H15.8984C16.0355 14.7333 16.1683 14.6869 16.2736 14.602C16.9779 14.0346 18.069 12.6837 18.8281 10.9536V15.8667ZM4.68754 2.26667H7.07034V2.83333C7.07034 3.14628 7.33269 3.4 7.65628 3.4C7.97987 3.4 8.24222 3.14628 8.24222 2.83333V2.26667H11.1719V2.83333C11.1719 3.14628 11.4342 3.4 11.7578 3.4C12.0814 3.4 12.3438 3.14628 12.3438 2.83333V2.26667H15.3125V2.83333C15.3125 3.14628 15.5749 3.4 15.8984 3.4C16.222 3.4 16.4844 3.14628 16.4844 2.83333V2.26667H18.8281V4.53333H4.68754V2.26667ZM4.6775 5.66629H18.8177C18.6857 9.26103 17.2591 12.0894 15.6687 13.6H1.91876C3.72082 11.3794 4.58082 8.48799 4.6775 5.66629Z" fill="#B68C5A"/>
</svg>
