<svg width="60" height="60" viewBox="0 0 60 60" fill="none" xmlns="http://www.w3.org/2000/svg">
<path d="M57.2399 19.0246H2.75714C2.48278 19.0246 2.21965 18.909 2.02565 18.7031C1.83165 18.4973 1.72266 18.2181 1.72266 17.927V12.8051C1.72257 12.5858 1.78441 12.3715 1.9002 12.1898C2.016 12.0081 2.18044 11.8674 2.37231 11.7858L29.9585 0.078573C30.2082 -0.0274425 30.487 -0.0261302 30.7358 0.0822316L57.6323 11.7895C57.8222 11.8721 57.9847 12.0128 58.099 12.1936C58.2134 12.3745 58.2744 12.5873 58.2744 12.8051V17.927C58.2744 18.2181 58.1654 18.4973 57.9714 18.7031C57.7774 18.909 57.5143 19.0246 57.2399 19.0246ZM3.79162 16.8295H56.2054V13.5412L30.3378 2.28173L3.79162 13.55V16.8295Z" fill="#B68C5A"/>
<path d="M18.0183 22.6828H8.19073C7.91637 22.6828 7.65325 22.5672 7.45924 22.3614C7.26524 22.1555 7.15625 21.8764 7.15625 21.5853V17.9268H9.22522V20.4877H16.9838V17.9268H19.0528V21.5853C19.0528 21.8764 18.9438 22.1555 18.7498 22.3614C18.5558 22.5672 18.2927 22.6828 18.0183 22.6828Z" fill="#B68C5A"/>
<path d="M35.2605 22.6828H25.4329C25.1586 22.6828 24.8954 22.5672 24.7014 22.3614C24.5074 22.1555 24.3984 21.8764 24.3984 21.5853V17.9268H26.4674V20.4877H34.226V17.9268H36.295V21.5853C36.295 21.8764 36.186 22.1555 35.992 22.3614C35.798 22.5672 35.5349 22.6828 35.2605 22.6828Z" fill="#B68C5A"/>
<path d="M51.8113 22.6828H41.9837C41.7093 22.6828 41.4462 22.5672 41.2522 22.3614C41.0582 22.1555 40.9492 21.8764 40.9492 21.5853V17.9268H43.0182V20.4877H50.7768V17.9268H52.8458V21.5853C52.8458 21.8764 52.7368 22.1555 52.5428 22.3614C52.3488 22.5672 52.0856 22.6828 51.8113 22.6828Z" fill="#B68C5A"/>
<path d="M16.594 46.097H10.0423C9.76793 46.097 9.50481 45.9814 9.31081 45.7756C9.1168 45.5697 9.00781 45.2906 9.00781 44.9995V21.585H11.0768V43.9019H15.5595V21.585H17.6285V44.9995C17.6285 45.2906 17.5195 45.5697 17.3255 45.7756C17.1315 45.9814 16.8684 46.097 16.594 46.097Z" fill="#B68C5A"/>
<path d="M33.8362 46.097H27.2845C27.0101 46.097 26.747 45.9814 26.553 45.7756C26.359 45.5697 26.25 45.2906 26.25 44.9995V21.585H28.319V43.9019H32.8017V21.585H34.8707V44.9995C34.8707 45.2906 34.7617 45.5697 34.5677 45.7756C34.3737 45.9814 34.1106 46.097 33.8362 46.097Z" fill="#B68C5A"/>
<path d="M50.387 46.097H43.8353C43.5609 46.097 43.2978 45.9814 43.1038 45.7756C42.9098 45.5697 42.8008 45.2906 42.8008 44.9995V21.585H44.8697V43.9019H49.3525V21.585H51.4215V44.9995C51.4215 45.2906 51.3125 45.5697 51.1185 45.7756C50.9245 45.9814 50.6613 46.097 50.387 46.097Z" fill="#B68C5A"/>
<path d="M19.3545 49.757H6.94073C6.66637 49.757 6.40325 49.6413 6.20924 49.4355C6.01524 49.2297 5.90625 48.9505 5.90625 48.6594V45.0009C5.90625 44.7098 6.01524 44.4306 6.20924 44.2248C6.40325 44.019 6.66637 43.9033 6.94073 43.9033H19.3545C19.6289 43.9033 19.892 44.019 20.086 44.2248C20.28 44.4306 20.389 44.7098 20.389 45.0009V48.6594C20.389 48.9505 20.28 49.2297 20.086 49.4355C19.892 49.6413 19.6289 49.757 19.3545 49.757ZM7.97522 47.5618H18.32V46.0984H7.97522V47.5618Z" fill="#B68C5A"/>
<path d="M36.5928 49.757H24.179C23.9047 49.757 23.6415 49.6413 23.4475 49.4355C23.2535 49.2297 23.1445 48.9505 23.1445 48.6594V45.0009C23.1445 44.7098 23.2535 44.4306 23.4475 44.2248C23.6415 44.019 23.9047 43.9033 24.179 43.9033H36.5928C36.8672 43.9033 37.1303 44.019 37.3243 44.2248C37.5183 44.4306 37.6273 44.7098 37.6273 45.0009V48.6594C37.6273 48.9505 37.5183 49.2297 37.3243 49.4355C37.1303 49.6413 36.8672 49.757 36.5928 49.757ZM25.2135 47.5618H35.5583V46.0984H25.2135V47.5618Z" fill="#B68C5A"/>
<path d="M53.1475 49.757H40.7337C40.4593 49.757 40.1962 49.6413 40.0022 49.4355C39.8082 49.2297 39.6992 48.9505 39.6992 48.6594V45.0009C39.6992 44.7098 39.8082 44.4306 40.0022 44.2248C40.1962 44.019 40.4593 43.9033 40.7337 43.9033H53.1475C53.4219 43.9033 53.685 44.019 53.879 44.2248C54.073 44.4306 54.182 44.7098 54.182 45.0009V48.6594C54.182 48.9505 54.073 49.2297 53.879 49.4355C53.685 49.6413 53.4219 49.757 53.1475 49.757ZM41.7682 47.5618H52.113V46.0984H41.7682V47.5618Z" fill="#B68C5A"/>
<path d="M30.389 14.6342C29.5024 14.6342 28.6357 14.3553 27.8985 13.8327C27.1613 13.3101 26.5868 12.5673 26.2475 11.6982C25.9082 10.8292 25.8194 9.87287 25.9924 8.95028C26.1654 8.0277 26.5923 7.18024 27.2192 6.5151C27.8461 5.84995 28.6449 5.39697 29.5145 5.21346C30.384 5.02994 31.2854 5.12413 32.1045 5.48411C32.9236 5.84408 33.6237 6.45368 34.1163 7.23581C34.6089 8.01795 34.8718 8.93749 34.8718 9.87815C34.8703 11.1391 34.3976 12.3479 33.5572 13.2395C32.7168 14.1311 31.5775 14.6327 30.389 14.6342ZM30.389 7.31718C29.9116 7.31718 29.4449 7.46738 29.048 7.74879C28.651 8.03019 28.3417 8.43016 28.159 8.89811C27.9763 9.36607 27.9285 9.88099 28.0216 10.3778C28.1147 10.8745 28.3446 11.3309 28.6822 11.689C29.0198 12.0472 29.4499 12.2911 29.9181 12.3899C30.3863 12.4887 30.8717 12.438 31.3127 12.2442C31.7538 12.0503 32.1308 11.7221 32.396 11.3009C32.6612 10.8798 32.8028 10.3847 32.8028 9.87815C32.8028 9.19894 32.5485 8.54755 32.0958 8.06727C31.6431 7.587 31.0292 7.31718 30.389 7.31718Z" fill="#B68C5A"/>
<path d="M55.8602 54.1469H4.13605C3.86168 54.1469 3.59856 54.0312 3.40456 53.8254C3.21055 53.6196 3.10156 53.3404 3.10156 53.0493V48.6591C3.10156 48.368 3.21055 48.0888 3.40456 47.883C3.59856 47.6772 3.86168 47.5615 4.13605 47.5615H55.8602C56.1345 47.5615 56.3977 47.6772 56.5917 47.883C56.7857 48.0888 56.8947 48.368 56.8947 48.6591V53.0493C56.8947 53.3404 56.7857 53.6196 56.5917 53.8254C56.3977 54.0312 56.1345 54.1469 55.8602 54.1469ZM5.17053 51.9517H54.8257V49.7566H5.17053V51.9517Z" fill="#B68C5A"/>
<path d="M58.9655 59.9999H1.03448C0.760121 59.9999 0.496996 59.8843 0.302993 59.6784C0.10899 59.4726 0 59.1934 0 58.9024V53.0487C0 52.7576 0.10899 52.4785 0.302993 52.2726C0.496996 52.0668 0.760121 51.9512 1.03448 51.9512H58.9655C59.2399 51.9512 59.503 52.0668 59.697 52.2726C59.891 52.4785 60 52.7576 60 53.0487V58.9024C60 59.1934 59.891 59.4726 59.697 59.6784C59.503 59.8843 59.2399 59.9999 58.9655 59.9999ZM2.06897 57.8048H57.931V54.1463H2.06897V57.8048Z" fill="#B68C5A"/>
</svg>
