<svg width="60" height="60" viewBox="0 0 60 60" fill="none" xmlns="http://www.w3.org/2000/svg">
<path fill-rule="evenodd" clip-rule="evenodd" d="M20.588 23.1856L24.8135 30.8253H16.3626L20.588 23.1856ZM48.2805 30.8253H39.8295L44.0549 23.1856L48.2805 30.8253ZM44.0549 36.6924C41.6848 36.6924 39.7025 34.9995 39.2524 32.7604H48.8587C48.4075 34.9995 46.4258 36.6924 44.0549 36.6924ZM20.588 36.6924C18.2186 36.6924 16.2355 34.9995 15.7855 32.7604H25.3918C24.9406 34.9995 22.9583 36.6924 20.588 36.6924ZM20.588 38.6275C24.3567 38.6275 27.4233 35.5609 27.4233 31.7928C27.4233 31.6221 27.3783 31.463 27.3018 31.3237L22.2296 22.155H31.3545V40.1305H27.6965C27.1618 40.1305 26.7289 40.5627 26.7289 41.098C26.7289 41.6328 27.1618 42.0656 27.6965 42.0656H36.9463C37.4816 42.0656 37.9146 41.6327 37.9146 41.098C37.9146 40.5627 37.4816 40.1305 36.9463 40.1305H33.2897V22.155H42.4147L37.3425 31.3237C37.2647 31.463 37.2216 31.6221 37.2216 31.7928C37.2216 35.5609 40.287 38.6275 44.0549 38.6275C47.8242 38.6275 50.8896 35.5609 50.8896 31.7928C50.8896 31.6221 50.8459 31.463 50.7688 31.3237L44.9017 20.719C44.731 20.411 44.4066 20.2198 44.0549 20.2198H20.588C20.2364 20.2198 19.912 20.411 19.7413 20.719L13.8742 31.3237C13.7983 31.463 13.7533 31.6221 13.7533 31.7928C13.7535 35.5609 16.8201 38.6275 20.588 38.6275ZM53.5206 10.604C53.5206 10.7652 53.3854 10.9003 53.2243 10.9003H49.1573C49.3703 10.722 49.5049 10.4566 49.5049 10.1587V2.02266C49.5049 1.99322 49.5035 1.96463 49.5015 1.93519H53.2244C53.3856 1.93519 53.5208 2.07102 53.5208 2.23151V10.604H53.5206ZM45.3093 10.3213C44.5253 11.3702 43.3762 11.993 42.1559 12.0291L30.0237 12.1002C30.0176 12.1002 30.0121 12.1002 30.0059 12.1016C29.7991 12.1064 29.5239 12.0654 29.1948 11.7192C29.0654 11.5319 29.0105 11.042 29.0105 10.6962C29.0105 10.4326 29.0895 10.2277 29.1348 10.1916C29.2228 10.1567 29.3806 10.0899 29.6558 9.97521C31.7876 9.08275 33.0496 8.59384 33.4061 8.52347L38.3731 8.4517C38.9077 8.44357 39.3353 8.00442 39.3264 7.46981C39.3186 6.9345 38.8849 6.51273 38.3452 6.51651L33.3304 6.58758C32.9166 6.59641 32.1183 6.84577 28.9088 8.18959C28.7245 8.26668 28.5483 8.34125 28.4575 8.37797C27.9543 8.52067 27.4633 9.02192 27.225 9.73202C25.3062 9.71688 23.2325 9.57573 21.6774 10.701L12.2848 17.4934C12.1216 17.5609 11.9571 17.563 11.7952 17.4981C11.0284 17.193 10.7715 15.6949 11.8641 14.8139L24.1615 4.88115C26.2024 3.23289 27.4037 2.90923 30.577 2.91652L46.4116 2.99025V9.43304C46.0236 9.59886 45.6446 9.87205 45.3093 10.3213ZM53.2243 0H48.6424C47.8441 0 47.145 0.423314 46.7503 1.05506H46.4525L30.585 0.980631C26.9317 0.964932 25.2943 1.47838 22.9446 3.37474L10.6472 13.3075C9.58875 14.1631 8.78908 15.7815 9.39139 17.4687C9.98543 19.1335 11.7235 19.9708 13.2201 19.1915L22.8114 12.2688C23.8083 11.5479 25.586 11.6469 27.1578 11.6672C27.2309 12.0373 27.4284 12.6377 27.6638 12.9107C28.3173 13.6673 29.1396 14.0551 30.0436 14.0359L42.1779 13.9642C43.8761 13.9591 45.5774 13.0653 46.6943 11.6889C47.076 12.3725 47.8067 12.8354 48.6426 12.8354H53.2244C54.4548 12.8354 55.4566 11.8357 55.4566 10.6039V2.23151C55.4565 1.0018 54.4547 0 53.2243 0ZM48.5925 45.1877L36.2951 55.119C34.2991 56.7319 33.0987 57.1034 29.8797 57.0836L14.045 57.0099V50.5672C14.4336 50.4013 14.8119 50.1281 15.1458 49.6795C15.9298 48.6307 17.0789 48.0073 18.3012 47.971L30.4328 47.8999H30.4513C30.6582 47.8952 30.9326 47.9347 31.2605 48.2809C31.3912 48.4699 31.4462 48.9582 31.4462 49.3046C31.4462 49.5663 31.3673 49.7716 31.3205 49.8085C31.2324 49.8447 31.0753 49.9103 30.7994 50.0256C28.6676 50.9181 27.407 51.407 27.0506 51.4767L22.0821 51.5484C21.5488 51.5566 21.1214 51.9957 21.1288 52.5303C21.1364 53.0637 21.5705 53.4874 22.1102 53.4836L27.1257 53.4126C27.5402 53.405 28.3378 53.1544 31.5473 51.8106C31.7323 51.7335 31.9071 51.6596 31.9993 51.622C32.5025 51.4793 32.9935 50.9788 33.2318 50.2692C35.1453 50.2845 37.2298 50.4202 38.7786 49.3002L48.1719 42.5066C48.3336 42.4391 48.4982 42.4384 48.6615 42.5019C49.4163 42.7999 49.6944 44.298 48.5925 45.1877ZM6.93589 57.7685V49.3961C6.93589 49.2349 7.07116 49.0998 7.23221 49.0998H11.2978C11.0862 49.2781 10.9502 49.5437 10.9502 49.8413V57.9782C10.9502 58.0068 10.9529 58.0355 10.9557 58.065H7.23221C7.07102 58.065 6.93589 57.9297 6.93589 57.7685ZM49.3751 40.7033C50.142 41.0072 50.7579 41.6737 51.0637 42.5313C51.6667 44.2187 50.8685 45.8369 49.8086 46.6927L37.5105 56.6254C35.2004 58.4916 33.5719 59.0208 30.0422 59.0208C24.6091 59.0208 19.1414 58.9456 13.7064 58.9456C13.3124 59.5765 12.6118 60 11.8135 60H7.23221C6.0004 60 5 58.9989 5 57.7684V49.396C5 48.1647 6.0004 47.1643 7.23221 47.1643H11.8135C12.6506 47.1643 13.3799 47.6273 13.7623 48.3109C14.8992 46.9091 16.5224 46.0828 18.2569 46.0371C18.2644 46.0357 18.2719 46.0357 18.278 46.0357L30.4123 45.9639C31.3171 45.9435 32.1385 46.3333 32.7927 47.0892C33.0296 47.3701 33.2237 47.957 33.2973 48.3341C34.8738 48.3477 36.6419 48.4568 37.6449 47.7317L47.2362 40.8083C47.9137 40.4631 48.6738 40.4255 49.3751 40.7033Z" fill="#B68C5A"/>
</svg>
