<svg width="76" height="57" viewBox="0 0 76 57" fill="none" xmlns="http://www.w3.org/2000/svg">
<g opacity="0.3">
<path d="M18.3961 0.875C8.39741 0.875 0.291901 8.98051 0.291901 18.9792C0.291901 26.3643 4.13639 33.51 9.87437 34.8888C12.0877 35.4206 13.8504 38.261 13.4716 41.5035C12.9647 45.8435 9.03996 50.2283 1.26903 53.6836C-0.461212 54.453 0.263279 57.0558 2.1422 56.8206C22.3944 54.285 36.4327 41.0819 36.5 22.402C36.5002 9.55528 28.9103 0.875 18.3961 0.875Z" fill="#B68C5A"/>
<path d="M57.8961 0.875C47.8974 0.875 39.7919 8.98051 39.7919 18.9792C39.7919 26.3643 43.6364 33.51 49.3744 34.8888C51.5877 35.4206 53.3504 38.261 52.9716 41.5035C52.4647 45.8435 48.54 50.2283 40.769 53.6836C39.0388 54.453 39.7633 57.0558 41.6422 56.8206C61.8944 54.285 75.9327 41.0819 76 22.402C76.0002 9.55528 68.4103 0.875 57.8961 0.875Z" fill="#B68C5A"/>
</g>
</svg>
