<svg width="18" height="16" viewBox="0 0 18 16" fill="none" xmlns="http://www.w3.org/2000/svg">
<path d="M1.08189 6.45504C1.15554 6.44309 1.23008 6.43758 1.30465 6.43854L14.0033 6.43854L13.7264 6.30975C13.4557 6.18165 13.2095 6.0073 12.9987 5.7946L9.43773 2.23358C8.96873 1.78588 8.88993 1.06566 9.25098 0.527124C9.6712 -0.046752 10.4771 -0.171355 11.051 0.248859C11.0973 0.282828 11.1414 0.319854 11.1828 0.359698L17.6223 6.79915C18.1255 7.30183 18.126 8.11727 17.6233 8.62051C17.623 8.62084 17.6226 8.6212 17.6223 8.62152L11.1828 15.061C10.6792 15.5632 9.86373 15.5621 9.36146 15.0584C9.32194 15.0188 9.28503 14.9766 9.25098 14.9322C8.88993 14.3936 8.96873 13.6734 9.43772 13.2257L12.9923 9.65827C13.1813 9.46911 13.3985 9.3105 13.6363 9.18819L14.0226 9.01433L1.37553 9.01432C0.717616 9.03875 0.140399 8.57918 0.0168011 7.9325C-0.0970561 7.23039 0.379787 6.56894 1.08189 6.45504Z" fill="#B68C5A"/>
</svg>
