<svg width="50" height="50" viewBox="0 0 50 50" fill="none" xmlns="http://www.w3.org/2000/svg">
<path d="M11 10.9167V40.0833C11.0009 40.8566 11.3085 41.5979 11.8553 42.1447C12.4021 42.6915 13.1434 42.9991 13.9167 43H36.6667C37.1308 43 37.5759 42.8156 37.9041 42.4874C38.2323 42.1592 38.4167 41.7141 38.4167 41.25V37.8871C38.601 37.7238 38.7485 37.523 38.849 37.2982C38.9496 37.0733 39.0011 36.8296 39 36.5833V9.75C39 9.28587 38.8156 8.84075 38.4874 8.51256C38.1592 8.18437 37.7141 8 37.25 8H13.9167C13.1434 8.00093 12.4021 8.30851 11.8553 8.85529C11.3085 9.40208 11.0009 10.1434 11 10.9167ZM37.25 41.25C37.25 41.4047 37.1885 41.5531 37.0791 41.6625C36.9698 41.7719 36.8214 41.8333 36.6667 41.8333H13.9167C13.4525 41.8333 13.0074 41.649 12.6792 41.3208C12.351 40.9926 12.1667 40.5475 12.1667 40.0833C12.1667 39.6192 12.351 39.1741 12.6792 38.8459C13.0074 38.5177 13.4525 38.3333 13.9167 38.3333H37.25V41.25ZM37.8333 9.75V36.5833C37.8331 36.6862 37.8056 36.7871 37.7538 36.8759C37.702 36.9647 37.6276 37.0383 37.5382 37.0891C37.4506 37.1399 37.3512 37.1667 37.25 37.1667H13.9167C13.2854 37.1655 12.671 37.3703 12.1667 37.75V10.9167C12.1667 10.4525 12.351 10.0074 12.6792 9.67923C13.0074 9.35104 13.4525 9.16667 13.9167 9.16667H37.25C37.4047 9.16667 37.5531 9.22812 37.6625 9.33752C37.7719 9.44692 37.8333 9.59529 37.8333 9.75Z" fill="white"/>
<path d="M30.0833 25H19.5833C19.4286 25 19.2803 25.0615 19.1709 25.1709C19.0615 25.2803 19 25.4286 19 25.5833C19 25.738 19.0615 25.8864 19.1709 25.9958C19.2803 26.1052 19.4286 26.1667 19.5833 26.1667H30.0833C30.238 26.1667 30.3864 26.1052 30.4958 25.9958C30.6052 25.8864 30.6667 25.738 30.6667 25.5833C30.6667 25.4286 30.6052 25.2803 30.4958 25.1709C30.3864 25.0615 30.238 25 30.0833 25Z" fill="white"/>
<path d="M28.5833 25H21.5833C21.4286 25 21.2803 25.0615 21.1709 25.1709C21.0615 25.2803 21 25.4286 21 25.5833C21 25.738 21.0615 25.8864 21.1709 25.9958C21.2803 26.1052 21.4286 26.1667 21.5833 26.1667H28.5833C28.738 26.1667 28.8864 26.1052 28.9958 25.9958C29.1052 25.8864 29.1667 25.738 29.1667 25.5833C29.1667 25.4286 29.1052 25.2803 28.9958 25.1709C28.8864 25.0615 28.738 25 28.5833 25Z" fill="white"/>
<path d="M16.7496 35.3987C16.9794 35.3992 17.207 35.3542 17.4193 35.2664C17.6317 35.1786 17.8245 35.0497 17.9869 34.8871L23.8826 28.9902C23.9795 29.0174 24.0795 29.0321 24.1801 29.0339C24.3333 29.0342 24.4851 29.0042 24.6266 28.9457C24.7682 28.8871 24.8968 28.8011 25.005 28.6927L25.8304 27.8678L26.7316 28.7685C26.5754 29.0946 26.5241 29.4612 26.5846 29.8177C26.6452 30.1742 26.8148 30.5032 27.07 30.7594L27.4783 31.1625C27.639 31.3266 27.8309 31.4571 28.0426 31.5462C28.2544 31.6353 28.4817 31.6814 28.7115 31.6817H28.7167C28.9473 31.6817 29.1757 31.6361 29.3885 31.5474C29.6014 31.4587 29.7946 31.3286 29.9569 31.1648L34.9035 26.2182C35.0662 26.0556 35.1952 25.8627 35.2832 25.6503C35.3712 25.4379 35.4165 25.2102 35.4165 24.9803C35.4165 24.7504 35.3712 24.5228 35.2832 24.3104C35.1952 24.098 35.0662 23.905 34.9035 23.7425L34.4894 23.3278C34.2333 23.0748 33.9054 22.907 33.5505 22.8472C33.1956 22.7874 32.8309 22.8385 32.506 22.9935L27.4048 17.8928C27.5603 17.5681 27.6116 17.2032 27.5517 16.8481C27.4917 16.493 27.3235 16.1652 27.07 15.9095L26.6558 15.4953C26.3221 15.1774 25.8789 15 25.418 15C24.957 15 24.5138 15.1774 24.1801 15.4953L19.2335 20.442C19.07 20.6036 18.9402 20.7961 18.8514 21.0081C18.7627 21.2202 18.7169 21.4478 18.7166 21.6776C18.7162 21.9075 18.7614 22.1352 18.8496 22.3475C18.9377 22.5599 19.067 22.7526 19.23 22.9148L19.6418 23.3324C19.8966 23.5889 20.2254 23.7592 20.5819 23.8193C20.9385 23.8795 21.3049 23.8265 21.6298 23.6678L22.5305 24.5691L21.708 25.3933C21.5643 25.5379 21.4611 25.7176 21.4088 25.9146C21.3564 26.1116 21.3568 26.3189 21.4099 26.5157L15.5124 32.4114C15.2677 32.6562 15.1011 32.9679 15.0336 33.3074C14.9661 33.6468 15.0008 33.9986 15.1332 34.3183C15.2656 34.638 15.4899 34.9113 15.7776 35.1036C16.0653 35.2959 16.4036 35.3986 16.7496 35.3987ZM33.6663 24.1532L34.0805 24.5673C34.1347 24.6215 34.1777 24.6858 34.2071 24.7567C34.2364 24.8275 34.2515 24.9034 34.2515 24.98C34.2515 25.0567 34.2364 25.1326 34.2071 25.2034C34.1777 25.2742 34.1347 25.3386 34.0805 25.3928L29.1338 30.3394C29.0795 30.3945 29.0149 30.4383 28.9436 30.4683C28.8723 30.4984 28.7958 30.514 28.7185 30.5144C28.6416 30.5142 28.5656 30.4986 28.4948 30.4686C28.4241 30.4385 28.3601 30.3946 28.3066 30.3394L27.8983 29.9311C27.844 29.8769 27.8009 29.8125 27.7715 29.7417C27.7421 29.6708 27.7269 29.5948 27.7269 29.5181C27.7269 29.4414 27.7421 29.3654 27.7715 29.2945C27.8009 29.2236 27.844 29.1593 27.8983 29.1051L32.8508 24.1532C32.96 24.0452 33.1073 23.9847 33.2609 23.9847C33.4144 23.9847 33.5618 24.0452 33.671 24.1532H33.6663ZM20.4701 22.507L20.0554 22.087C20.0004 22.0341 19.9566 21.9707 19.9265 21.9005C19.8965 21.8304 19.8808 21.755 19.8804 21.6787C19.8805 21.601 19.896 21.5242 19.9261 21.4526C19.9561 21.381 20.0001 21.3161 20.0554 21.2616L25.0026 16.3149C25.0568 16.2607 25.1211 16.2177 25.192 16.1883C25.2628 16.1589 25.3387 16.1438 25.4153 16.1438C25.492 16.1438 25.5679 16.1589 25.6387 16.1883C25.7095 16.2177 25.7739 16.2607 25.828 16.3149L26.2416 16.7291C26.3496 16.8383 26.4101 16.9856 26.4101 17.1392C26.4101 17.2927 26.3496 17.4401 26.2416 17.5493L21.2926 22.507C21.1833 22.6156 21.0355 22.6766 20.8814 22.6766C20.7273 22.6766 20.5794 22.6156 20.4701 22.507ZM26.6535 18.7912L31.6036 23.7408L27.483 27.8673L26.2457 26.6306L23.7706 24.1555L22.5305 22.9153L26.6535 18.7912ZM23.3553 25.3928L25.0055 27.043L24.1807 27.8684L22.5305 26.2182L23.3553 25.3928ZM16.3372 33.2363L22.118 27.4554L22.9429 28.282L17.162 34.0628C17.052 34.1691 16.9047 34.2279 16.7517 34.2266C16.5988 34.2252 16.4525 34.1639 16.3443 34.0557C16.2362 33.9476 16.1748 33.8013 16.1735 33.6483C16.1722 33.4954 16.231 33.348 16.3372 33.238V33.2363Z" fill="white"/>
</svg>
