<svg width="50" height="50" viewBox="0 0 50 50" fill="none" xmlns="http://www.w3.org/2000/svg">
<path d="M43.4872 33.1698H37.9164C37.3353 32.6044 36.5846 32.1728 35.6701 31.8828C34.4149 31.485 33.2424 31.4902 32.9121 31.5015C32.6002 31.5103 32.3033 31.3738 32.1199 31.1311L29.4862 27.647C29.0546 27.0757 28.3935 26.74 27.6983 26.7089V13.5117H34.6564L31.1003 24.3585H30.9037C30.7069 24.3585 30.518 24.4437 30.3855 24.5924C30.2473 24.7474 30.1819 24.9563 30.2059 25.1656C30.4236 27.0589 32.6779 28.4868 35.4496 28.4868C38.2212 28.4868 40.4755 27.0589 40.6933 25.1657C40.7173 24.9563 40.6519 24.7474 40.5136 24.5924C40.3811 24.4437 40.1922 24.3585 39.9954 24.3585H39.8042L36.4078 13.5117H37.4409C38.3636 13.5117 39.1143 12.7611 39.1143 11.8355C39.1143 10.9128 38.3636 10.1621 37.4409 10.1621H27.4225C26.9057 9.45814 26.0729 9 25.1346 9C24.1964 9 23.3635 9.45814 22.8468 10.1621H17.8394C17.5562 10.1621 17.3267 10.3916 17.3267 10.6748C17.3267 10.958 17.5562 11.1875 17.8394 11.1875H22.3736C22.3245 11.3962 22.2977 11.6134 22.2977 11.8369C22.2977 12.0604 22.3245 12.2776 22.3736 12.4863H14.5107C14.5091 12.4863 14.5076 12.4863 14.506 12.4863H12.8288C12.4715 12.4863 12.1807 12.1956 12.1807 11.8355C12.1807 11.4782 12.4715 11.1875 12.8288 11.1875H15.5257C15.8088 11.1875 16.0384 10.958 16.0384 10.6748C16.0384 10.3916 15.8088 10.1621 15.5257 10.1621H12.8288C11.906 10.1621 11.1554 10.9128 11.1554 11.8383C11.1554 12.7611 11.906 13.5117 12.8288 13.5117H13.4555L9.89864 24.3585H9.70273C9.50592 24.3585 9.31698 24.4437 9.18449 24.5924C9.04627 24.7474 8.98078 24.9563 9.00492 25.1656C9.22264 27.0589 11.4769 28.4868 14.2486 28.4868C17.0203 28.4868 19.2746 27.0589 19.4924 25.1655C19.5164 24.9562 19.4509 24.7473 19.3127 24.5923C19.1802 24.4437 18.9913 24.3585 18.7945 24.3585H18.6033L15.2068 13.5117H22.5714V33.0324H21.697C21.0697 33.0324 20.4622 33.2193 19.9475 33.5652L17.1754 31.3901C16.3667 30.7555 15.2913 30.6866 14.4296 31.1245L13.4801 30.6289C12.2292 29.9764 10.6798 30.4635 10.0263 31.714C9.70908 32.3203 9.64715 33.0136 9.85189 33.666C10.0564 34.3178 10.5027 34.8507 11.1082 35.1666L18.4909 39.0186C18.5777 39.0636 18.6672 39.1019 18.7572 39.1366L20.9617 40.8663C21.0556 40.9399 21.1671 40.9757 21.2779 40.9757C21.43 40.9757 21.5804 40.9084 21.6816 40.7795C21.8564 40.5567 21.8175 40.2344 21.5947 40.0596L14.6452 34.6068C14.3228 34.3539 14.1184 33.9907 14.0696 33.5842C14.0208 33.178 14.1334 32.7771 14.3864 32.4553C14.9094 31.7904 15.8767 31.6745 16.5425 32.1968L19.638 34.6256C19.6388 34.6262 19.6396 34.6269 19.6404 34.6275L24.5868 38.5084C24.7623 38.6462 25.0067 38.6546 25.1914 38.5292C25.2297 38.5032 28.2104 36.4932 31.0891 35.4766C31.0917 35.4756 31.0943 35.4747 31.097 35.4737C31.9226 35.1826 32.7395 34.9733 33.476 34.9164C35.1652 34.7859 36.6419 35.221 37.6361 36.1415C38.5072 36.9479 38.9677 38.0856 38.9677 39.4318C38.9677 39.715 39.1971 39.9445 39.4804 39.9445C39.7636 39.9445 39.9931 39.715 39.9931 39.4318C39.9931 37.7926 39.419 36.3946 38.3327 35.389C37.1265 34.2723 35.3744 33.7409 33.3971 33.894C32.6866 33.9489 31.9205 34.1258 31.1472 34.3749C30.6344 33.6365 29.8348 33.1571 28.939 33.0537L27.6984 31.4188V27.7349C28.0763 27.7644 28.4325 27.9531 28.6683 28.265L31.302 31.7491C31.6862 32.2578 32.3013 32.5478 32.9472 32.5261C33.3109 32.5133 36.5414 32.4693 37.7947 34.6683C37.8892 34.8343 38.0624 34.9272 38.2405 34.9272C38.3266 34.9272 38.4138 34.9056 38.4939 34.8599C38.7286 34.7261 38.817 34.4352 38.7028 34.195H42.9745V37.4355C42.9745 37.7187 43.204 37.9482 43.4872 37.9482C43.7704 37.9482 43.9999 37.7187 43.9999 37.4355V33.6825C43.9999 33.3993 43.7704 33.1698 43.4872 33.1698ZM14.4369 35.7466L11.5825 34.2573C11.2199 34.0682 10.9527 33.7491 10.8303 33.3589C10.7077 32.968 10.7449 32.5526 10.9351 32.189C11.3269 31.4389 12.256 31.1468 13.0058 31.5379L13.5716 31.8332C13.1555 32.3685 12.9706 33.033 13.0515 33.7065C13.133 34.3851 13.4742 34.9913 14.0122 35.4135L14.4369 35.7466ZM35.4496 27.4613C33.459 27.4613 31.7037 26.5562 31.3011 25.3838H39.5979C39.1954 26.5562 37.4401 27.4613 35.4496 27.4613ZM32.1794 24.3585L35.5298 14.1392L38.7296 24.3585H32.1794ZM37.4409 11.1875C37.7982 11.1875 38.0889 11.4782 38.0889 11.8383C38.0889 12.1957 37.7982 12.4863 37.4409 12.4863H35.7118C35.7102 12.4863 35.7086 12.4863 35.7071 12.4863H35.3731C35.3718 12.4863 35.3705 12.4863 35.3692 12.4863H27.8956C27.9447 12.2776 27.9715 12.0604 27.9715 11.8369C27.9715 11.6134 27.9447 11.3962 27.8956 11.1875H37.4409ZM25.1346 10.0254C26.1335 10.0254 26.9461 10.838 26.9461 11.8369C26.9461 12.8358 26.1335 13.6484 25.1346 13.6484C24.1358 13.6484 23.3231 12.8358 23.3231 11.8369C23.3231 10.838 24.1358 10.0254 25.1346 10.0254ZM14.2485 27.4613C12.258 27.4613 10.5028 26.5562 10.1001 25.3838H18.397C17.9944 26.5562 16.2391 27.4613 14.2485 27.4613ZM10.9777 24.3585L14.3288 14.1392L17.5287 24.3585H10.9777ZM23.5967 14.219C24.0402 14.5062 24.5681 14.6738 25.1346 14.6738C25.7014 14.6738 26.2294 14.5061 26.6729 14.2186V27.2727V27.2739V33.0323H23.5967V14.219ZM30.129 34.7403C27.8639 35.6315 25.72 36.9611 24.9291 37.4737L20.8192 34.2491C21.0924 34.1242 21.3911 34.0578 21.697 34.0578H28.5726C29.1766 34.0578 29.7353 34.3099 30.129 34.7403Z" fill="white"/>
<path d="M43.4855 39.1104C43.2023 39.1104 42.9728 39.3398 42.9728 39.623V41.0693L37.7347 41.2412C37.7158 41.2419 37.6972 41.2436 37.6789 41.2462C37.6782 41.2463 37.6775 41.2463 37.6767 41.2464L26.0635 42.958C25.9896 42.9688 25.9142 42.9744 25.8392 42.9744C25.4968 42.9744 25.1599 42.858 24.8907 42.6468L23.3136 41.4093C23.0908 41.2344 22.7685 41.2734 22.5937 41.4962C22.4189 41.7189 22.4578 42.0413 22.6806 42.216L24.2578 43.4536C24.7069 43.8057 25.2685 43.9997 25.8393 43.9997C25.9641 43.9997 26.0899 43.9905 26.2131 43.9724L37.7975 42.2651L39.2098 42.2188C39.21 42.2188 39.2103 42.2187 39.2106 42.2187L43.5024 42.0778C43.7788 42.0687 43.9982 41.842 43.9982 41.5654V39.623C43.9982 39.3398 43.7687 39.1104 43.4855 39.1104Z" fill="white"/>
</svg>
