<svg width="50" height="50" viewBox="0 0 50 50" fill="none" xmlns="http://www.w3.org/2000/svg">
<path d="M8.58289 31.8984C8.58289 32.5168 8.82853 33.1098 9.26578 33.5471C9.70304 33.9843 10.2961 34.23 10.9144 34.23H24.0067C24.079 34.3518 24.1657 34.4646 24.2649 34.5657L30.2955 40.5974C30.634 40.934 31.092 41.1229 31.5694 41.1229C32.0467 41.1229 32.5047 40.934 32.8433 40.5974C33.1071 40.3316 33.2815 39.99 33.3421 39.6204C33.4027 39.2507 33.3465 38.8714 33.1813 38.5352L34.1542 37.5617L38.8587 42.2674C39.0813 42.4969 39.3473 42.6798 39.6412 42.8055C39.9352 42.9312 40.2512 42.9972 40.5709 42.9996C40.8906 43.0021 41.2076 42.9409 41.5034 42.8196C41.7992 42.6984 42.068 42.5195 42.294 42.2934C42.5201 42.0674 42.6989 41.7986 42.8201 41.5027C42.9413 41.2069 43.0024 40.8899 42.9999 40.5702C42.9974 40.2505 42.9314 39.9345 42.8056 39.6406C42.6799 39.3466 42.4969 39.0806 42.2674 38.8581L37.5629 34.1524L38.5352 33.1808C38.8708 33.3487 39.2508 33.4063 39.6212 33.3455C39.9915 33.2847 40.3331 33.1085 40.5974 32.8421C40.9342 32.5035 41.1232 32.0454 41.1232 31.5679C41.1232 31.0904 40.9342 30.6323 40.5974 30.2937L35.3957 25.0909V21.5422C35.7715 21.118 35.9789 20.5708 35.9786 20.004V14.9947C35.9786 14.3763 35.733 13.7832 35.2957 13.346C34.8585 12.9087 34.2654 12.6631 33.6471 12.6631H29.5669V10.3316C29.5669 9.71319 29.3212 9.12015 28.884 8.6829C28.4467 8.24564 27.8537 8 27.2353 8H16.7433C16.125 8 15.5319 8.24564 15.0947 8.6829C14.6574 9.12015 14.4118 9.71319 14.4118 10.3316V12.6631H10.3316C9.71319 12.6631 9.12015 12.9087 8.6829 13.346C8.24565 13.7832 8 14.3763 8 14.9947V20.004C7.99959 20.5706 8.20698 21.1177 8.58289 21.5417V31.8984ZM23.7601 33.0642H10.9144C10.6053 33.0642 10.3087 32.9414 10.0901 32.7227C9.87149 32.5041 9.74866 32.2076 9.74866 31.8984V22.2557C9.77489 22.2627 9.79938 22.2743 9.82619 22.2802L18.492 24.2043V26.0695C18.492 26.5333 18.6762 26.9781 19.0042 27.306C19.3321 27.634 19.7769 27.8182 20.2406 27.8182H23.738C24.2018 27.8182 24.6465 27.634 24.9745 27.306C25.3024 26.9781 25.4866 26.5333 25.4866 26.0695V24.2043L34.1524 22.2808C34.1792 22.2749 34.2031 22.2633 34.2294 22.2569V24.0102C33.8829 23.8082 33.4805 23.7237 33.082 23.7691C32.6836 23.8146 32.3105 23.9877 32.0185 24.2626C31.7546 24.5284 31.5802 24.87 31.5197 25.2397C31.4592 25.6094 31.5156 25.9887 31.681 26.3248L26.3213 31.6845C25.985 31.525 25.6082 31.4712 25.2407 31.5302C24.8731 31.5892 24.5321 31.7583 24.2626 32.015C23.9825 32.2987 23.8056 32.6681 23.7601 33.0642ZM19.6578 26.0695V24.3209H24.3209V26.0695C24.3209 26.2241 24.2595 26.3724 24.1501 26.4817C24.0408 26.591 23.8926 26.6524 23.738 26.6524H20.2406C20.0861 26.6524 19.9378 26.591 19.8285 26.4817C19.7192 26.3724 19.6578 26.2241 19.6578 26.0695ZM32.0191 39.7732C31.8997 39.8922 31.7379 39.959 31.5694 39.959C31.4008 39.959 31.2391 39.8922 31.1197 39.7732L25.0891 33.7415C25.0024 33.6512 24.944 33.5376 24.9211 33.4145C24.8982 33.2915 24.9119 33.1644 24.9603 33.049C25.0088 32.9336 25.09 32.8349 25.1939 32.7651C25.2977 32.6953 25.4198 32.6574 25.5449 32.6562C25.628 32.6566 25.7102 32.6735 25.7867 32.7058C25.8632 32.7381 25.9326 32.7852 25.9908 32.8444L32.0191 38.8732C32.1384 38.9926 32.2054 39.1545 32.2054 39.3232C32.2054 39.492 32.1384 39.6539 32.0191 39.7732ZM41.4432 39.6823C41.6717 39.9168 41.7986 40.2318 41.7965 40.5592C41.7944 40.8865 41.6635 41.1999 41.432 41.4314C41.2006 41.663 40.8872 41.794 40.5599 41.7962C40.2325 41.7984 39.9174 41.6716 39.6829 41.4432L34.9784 36.7364L36.7387 34.9761L41.4432 39.6823ZM32.4312 37.6369L29.828 35.0332L27.2248 32.4294L32.4312 27.2231L35.0343 29.8262L37.6375 32.4294L32.4312 37.6369ZM39.7732 31.1173C39.8925 31.2367 39.9596 31.3986 39.9596 31.5673C39.9596 31.7361 39.8925 31.898 39.7732 32.0173C39.6521 32.1327 39.4911 32.1971 39.3238 32.1971C39.1565 32.1971 38.9956 32.1327 38.8744 32.0173L32.8433 25.9862C32.724 25.8668 32.6569 25.705 32.6569 25.5362C32.6569 25.3674 32.724 25.2056 32.8433 25.0862C32.9636 24.9692 33.1248 24.9037 33.2927 24.9037C33.4605 24.9037 33.6217 24.9692 33.7421 25.0862L39.7732 31.1173ZM15.5775 10.3316C15.5775 10.0224 15.7004 9.72585 15.919 9.50722C16.1376 9.2886 16.4341 9.16578 16.7433 9.16578H27.2353C27.5445 9.16578 27.841 9.2886 28.0596 9.50722C28.2783 9.72585 28.4011 10.0224 28.4011 10.3316V12.6631H27.2353V11.4973C27.2353 11.1881 27.1125 10.8916 26.8939 10.673C26.6752 10.4544 26.3787 10.3316 26.0695 10.3316H17.9091C17.5999 10.3316 17.3034 10.4544 17.0848 10.673C16.8661 10.8916 16.7433 11.1881 16.7433 11.4973V12.6631H15.5775V10.3316ZM26.0695 11.4973V12.6631H17.9091V11.4973H26.0695ZM9.16578 14.9947C9.16578 14.6855 9.2886 14.389 9.50722 14.1703C9.72585 13.9517 10.0224 13.8289 10.3316 13.8289H33.6471C33.9563 13.8289 34.2528 13.9517 34.4714 14.1703C34.69 14.389 34.8128 14.6855 34.8128 14.9947V20.004C34.814 20.2695 34.724 20.5273 34.5578 20.7344C34.3917 20.9415 34.1595 21.0853 33.9 21.1418L24.8402 23.1551H19.1384L10.0792 21.1418C9.81962 21.0854 9.5873 20.9417 9.42104 20.7346C9.25478 20.5275 9.16467 20.2696 9.16578 20.004V14.9947Z" fill="white"/>
</svg>
