<svg width="50" height="50" viewBox="0 0 50 50" fill="none" xmlns="http://www.w3.org/2000/svg">
<path d="M27.4075 22H23.5127C23.2296 22 23 22.2296 23 22.5127V26.4075C23 26.6907 23.2296 26.9202 23.5127 26.9202H27.4075C27.6906 26.9202 27.9202 26.6907 27.9202 26.4075V22.5127C27.9202 22.2296 27.6906 22 27.4075 22ZM26.8948 25.8949H24.0254V23.0255H26.8948V25.8949Z" fill="white"/>
<path d="M26.3996 24H23.5127C23.2296 24 23 24.2296 23 24.5127C23 24.7958 23.2296 25.0254 23.5127 25.0254H26.3996C26.6827 25.0254 26.9123 24.7958 26.9123 24.5127C26.9123 24.2296 26.6827 24 26.3996 24Z" fill="white"/>
<path d="M27.4075 22H23.5127C23.2296 22 23 22.2296 23 22.5127V26.4075C23 26.6907 23.2296 26.9202 23.5127 26.9202H27.4075C27.6906 26.9202 27.9202 26.6907 27.9202 26.4075V22.5127C27.9202 22.2296 27.6906 22 27.4075 22ZM26.8948 25.8948H24.0254V23.0254H26.8948V25.8948Z" fill="white"/>
<path d="M26.3996 24H23.5127C23.2296 24 23 24.2296 23 24.5127C23 24.7958 23.2296 25.0254 23.5127 25.0254H26.3996C26.6827 25.0254 26.9123 24.7958 26.9123 24.5127C26.9123 24.2296 26.6827 24 26.3996 24Z" fill="white"/>
<path d="M27.4075 22H23.5127C23.2296 22 23 22.2296 23 22.5127V26.4075C23 26.6907 23.2296 26.9202 23.5127 26.9202H27.4075C27.6906 26.9202 27.9202 26.6907 27.9202 26.4075V22.5127C27.9202 22.2296 27.6906 22 27.4075 22ZM26.8948 25.8948H24.0254V23.0254H26.8948V25.8948Z" fill="white"/>
<path d="M26.3996 24H23.5127C23.2296 24 23 24.2296 23 24.5127C23 24.7958 23.2296 25.0254 23.5127 25.0254H26.3996C26.6827 25.0254 26.9123 24.7958 26.9123 24.5127C26.9123 24.2296 26.6827 24 26.3996 24Z" fill="white"/>
<path d="M28.726 24H20.5127C20.2296 24 20 24.2296 20 24.5127C20 24.7958 20.2296 25.0254 20.5127 25.0254H28.726C29.0092 25.0254 29.2387 24.7958 29.2387 24.5127C29.2387 24.2296 29.0092 24 28.726 24Z" fill="white"/>
<path d="M37.9395 16.6273V7.5127C37.9395 7.22955 37.7099 7 37.4268 7H7.5127C7.22955 7 7 7.22955 7 7.5127V25.1125C7 25.3956 7.22955 25.6252 7.5127 25.6252C7.79584 25.6252 8.02539 25.3956 8.02539 25.1125V11.8519H28.1686C28.4518 11.8519 28.6813 11.6224 28.6813 11.3392C28.6813 11.0561 28.4518 10.8266 28.1686 10.8266H8.02539V8.02539H36.9141V10.8266H30.3333C30.0502 10.8266 29.8206 11.0561 29.8206 11.3392C29.8206 11.6224 30.0502 11.8519 30.3333 11.8519H36.9141V15.9555C35.4448 15.1156 33.7449 14.635 31.9346 14.635C29.1189 14.635 26.57 15.7976 24.7414 17.6675H17.9113C17.6282 17.6675 17.3986 17.8971 17.3986 18.1802C17.3986 18.4634 17.6282 18.6929 17.9113 18.6929H23.8634C23.6431 18.9882 23.4391 19.2961 23.2516 19.615H17.9113C17.6282 19.615 17.3986 19.8445 17.3986 20.1277C17.3986 20.4108 17.6282 20.6404 17.9113 20.6404H22.7254C22.1754 21.8829 21.8693 23.2565 21.8693 24.7004C21.8693 24.8243 21.8723 24.9475 21.8768 25.0705H17.9113C17.6282 25.0705 17.3986 25.3 17.3986 25.5832C17.3986 25.8663 17.6282 26.0958 17.9113 26.0958H21.9665C22.0099 26.4079 22.0675 26.7155 22.139 27.0179H17.9113C17.6282 27.0179 17.3986 27.2474 17.3986 27.5306C17.3986 27.8137 17.6282 28.0433 17.9113 28.0433H22.4407C23.0576 29.7903 24.1434 31.318 25.5469 32.4734H17.9114C17.6282 32.4734 17.3987 32.7029 17.3987 32.9861C17.3987 33.2692 17.6282 33.4988 17.9114 33.4988H26.1247C26.3236 33.4988 26.4956 33.3854 26.5807 33.2198C28.1324 34.1985 29.9684 34.7657 31.9347 34.7657C33.7449 34.7657 35.4448 34.2851 36.9141 33.4452V40.2855H8.02539V27.3506C8.02539 27.0674 7.79584 26.8379 7.5127 26.8379C7.22955 26.8379 7 27.0674 7 27.3506V40.7982C7 41.0814 7.22955 41.3109 7.5127 41.3109H37.4268C37.7099 41.3109 37.9395 41.0814 37.9395 40.7982V32.7734C40.4022 30.9368 42 28.0017 42 24.7003C42 21.3989 40.4022 18.4638 37.9395 16.6273ZM31.9346 33.7403C26.95 33.7403 22.8946 29.685 22.8946 24.7003C22.8946 19.7156 26.9499 15.6603 31.9346 15.6603C36.9193 15.6603 40.9746 19.7157 40.9746 24.7003C40.9746 29.6849 36.9193 33.7403 31.9346 33.7403Z" fill="white"/>
<path d="M31.1099 21.5228C30.9687 21.2774 30.6552 21.1929 30.4098 21.3343C30.1643 21.4755 30.0799 21.789 30.2212 22.0344C30.7416 22.9386 31.0168 23.9713 31.0168 25.0211C31.0168 28.3272 28.3271 31.0168 25.0211 31.0168C21.7151 31.0168 19.0255 28.3271 19.0255 25.0211C19.0255 21.7151 21.7151 19.0255 25.0211 19.0255C26.4699 19.0255 27.8685 19.5491 28.9591 20.4999C29.1725 20.686 29.4963 20.6638 29.6825 20.4503C29.8686 20.2369 29.8463 19.913 29.6329 19.727C28.3555 18.6133 26.7177 18 25.0211 18C21.1496 18 18 21.1497 18 25.0211C18 28.8925 21.1497 32.0421 25.0211 32.0421C28.8925 32.0421 32.0421 28.8925 32.0421 25.0211C32.0422 23.792 31.7198 22.5823 31.1099 21.5228Z" fill="white"/>
<path d="M25.4553 24.5177H24.6144C24.2897 24.5177 24.0254 24.2535 24.0254 23.9287C24.0254 23.6038 24.2896 23.3396 24.6144 23.3396H25.9771C26.0142 23.3396 26.0442 23.3697 26.0442 23.4067C26.0442 23.6899 26.2738 23.9194 26.5569 23.9194C26.8401 23.9194 27.0696 23.6899 27.0696 23.4067C27.0696 22.8043 26.5795 22.3142 25.9771 22.3142H25.5475V21.5127C25.5475 21.2296 25.318 21 25.0349 21C24.7517 21 24.5222 21.2296 24.5222 21.5127V22.317C23.6748 22.365 23 23.0694 23 23.9287C23 24.8188 23.7242 25.5431 24.6144 25.5431H25.4553C25.78 25.5431 26.0443 25.8073 26.0443 26.1321C26.0443 26.457 25.7801 26.7212 25.4553 26.7212H24.0926C24.0555 26.7212 24.0254 26.6911 24.0254 26.6541C24.0254 26.3709 23.7958 26.1414 23.5127 26.1414C23.2296 26.1414 23 26.3709 23 26.6541C23 27.2565 23.4901 27.7466 24.0926 27.7466H24.5222V28.5481C24.5222 28.8312 24.7517 29.0608 25.0349 29.0608C25.318 29.0608 25.5475 28.8312 25.5475 28.5481V27.7438C26.3949 27.6958 27.0697 26.9914 27.0697 26.1321C27.0697 25.242 26.3455 24.5177 25.4553 24.5177Z" fill="white"/>
<path d="M25.1592 24H24.5127C24.2296 24 24 24.2296 24 24.5127C24 24.7958 24.2296 25.0254 24.5127 25.0254H25.1592C25.4424 25.0254 25.6719 24.7958 25.6719 24.5127C25.6719 24.2296 25.4424 24 25.1592 24Z" fill="white"/>
<path d="M25.1593 24H24.5127C24.2296 24 24 24.2296 24 24.5127C24 24.7958 24.2296 25.0254 24.5127 25.0254H25.1593C25.4425 25.0254 25.672 24.7958 25.672 24.5127C25.672 24.2296 25.4425 24 25.1593 24Z" fill="white"/>
<path d="M25.1593 24H24.5127C24.2295 24 24 24.2296 24 24.5127C24 24.7958 24.2295 25.0254 24.5127 25.0254H25.1593C25.4425 25.0254 25.672 24.7958 25.672 24.5127C25.672 24.2296 25.4425 24 25.1593 24Z" fill="white"/>
</svg>
