<svg width="20" height="20" viewBox="0 0 20 20" fill="none" xmlns="http://www.w3.org/2000/svg">
<path d="M14.1791 12.5924C13.3534 12.5924 12.6094 12.949 12.0931 13.5162L7.44889 10.6399C7.57288 10.3225 7.64165 9.9777 7.64165 9.61703C7.64165 9.25624 7.57288 8.91148 7.44889 8.59421L12.0931 5.7177C12.6094 6.28493 13.3534 6.64165 14.1791 6.64165C15.7346 6.64165 17 5.37623 17 3.82076C17 2.26529 15.7346 1 14.1791 1C12.6236 1 11.3582 2.26542 11.3582 3.82089C11.3582 4.18156 11.4271 4.52631 11.551 4.84372L6.90691 7.72009C6.39056 7.15286 5.64662 6.79614 4.82089 6.79614C3.26542 6.79614 2 8.06169 2 9.61703C2 11.1725 3.26542 12.4379 4.82089 12.4379C5.64662 12.4379 6.39056 12.0813 6.90691 11.514L11.551 14.3904C11.4271 14.7078 11.3582 15.0525 11.3582 15.4133C11.3582 16.9687 12.6236 18.2341 14.1791 18.2341C15.7346 18.2341 17 16.9687 17 15.4133C17 13.8578 15.7346 12.5924 14.1791 12.5924ZM12.3868 3.82089C12.3868 2.83265 13.1909 2.02861 14.1791 2.02861C15.1674 2.02861 15.9714 2.83265 15.9714 3.82089C15.9714 4.80914 15.1674 5.61317 14.1791 5.61317C13.1909 5.61317 12.3868 4.80914 12.3868 3.82089ZM4.82089 11.4093C3.83251 11.4093 3.02848 10.6053 3.02848 9.61703C3.02848 8.62879 3.83251 7.82476 4.82089 7.82476C5.80914 7.82476 6.61304 8.62879 6.61304 9.61703C6.61304 10.6053 5.80914 11.4093 4.82089 11.4093ZM12.3868 15.4132C12.3868 14.4249 13.1909 13.6209 14.1791 13.6209C15.1674 13.6209 15.9714 14.4249 15.9714 15.4132C15.9714 16.4014 15.1674 17.2055 14.1791 17.2055C13.1909 17.2055 12.3868 16.4014 12.3868 15.4132Z" fill="white"/>
</svg>
