<svg width="103" height="15" viewBox="0 0 103 15" fill="none" xmlns="http://www.w3.org/2000/svg">
<path d="M0.166016 5.85031C0.166016 5.98585 0.242406 6.13372 0.395186 6.29391L3.59471 9.5655L2.8367 14.1864C2.83082 14.2295 2.82788 14.2911 2.82788 14.3712C2.82788 14.5006 2.85873 14.6099 2.92043 14.6993C2.98213 14.7886 3.07174 14.8333 3.18926 14.8333C3.3009 14.8333 3.41843 14.7963 3.54182 14.7224L7.49935 12.5413L11.4569 14.7224C11.5862 14.7963 11.7037 14.8333 11.8095 14.8333C11.9329 14.8333 12.0254 14.7886 12.0871 14.6993C12.1488 14.6099 12.1797 14.5006 12.1797 14.3712C12.1797 14.3342 12.1738 14.2726 12.162 14.1864L11.404 9.5655L14.6124 6.29391C14.7593 6.12756 14.8327 5.97969 14.8327 5.85031C14.8327 5.62234 14.6682 5.48064 14.3391 5.42518L9.91438 4.75054L7.93125 0.545536C7.8196 0.292926 7.67564 0.166626 7.49935 0.166626C7.32307 0.166626 7.17911 0.292926 7.06746 0.545536L5.08429 4.75054L0.659606 5.42518C0.330546 5.48064 0.166016 5.62234 0.166016 5.85031Z" fill="#FFA858"/>
<path d="M22.166 5.85031C22.166 5.98585 22.2424 6.13372 22.3952 6.29391L25.5947 9.5655L24.8367 14.1864C24.8308 14.2295 24.8279 14.2911 24.8279 14.3712C24.8279 14.5006 24.8587 14.6099 24.9204 14.6993C24.9821 14.7886 25.0718 14.8333 25.1893 14.8333C25.3009 14.8333 25.4184 14.7963 25.5418 14.7224L29.4994 12.5413L33.4569 14.7224C33.5862 14.7963 33.7037 14.8333 33.8095 14.8333C33.9329 14.8333 34.0254 14.7886 34.0871 14.6993C34.1488 14.6099 34.1797 14.5006 34.1797 14.3712C34.1797 14.3342 34.1738 14.2726 34.162 14.1864L33.404 9.5655L36.6124 6.29391C36.7593 6.12756 36.8327 5.97969 36.8327 5.85031C36.8327 5.62234 36.6682 5.48064 36.3391 5.42518L31.9144 4.75054L29.9313 0.545536C29.8196 0.292926 29.6757 0.166626 29.4994 0.166626C29.3231 0.166626 29.1791 0.292926 29.0675 0.545536L27.0843 4.75054L22.6596 5.42518C22.3306 5.48064 22.166 5.62234 22.166 5.85031Z" fill="#FFA858"/>
<path d="M44.166 5.85031C44.166 5.98585 44.2424 6.13372 44.3952 6.29391L47.5947 9.5655L46.8367 14.1864C46.8308 14.2295 46.8279 14.2911 46.8279 14.3712C46.8279 14.5006 46.8587 14.6099 46.9204 14.6993C46.9821 14.7886 47.0718 14.8333 47.1893 14.8333C47.3009 14.8333 47.4184 14.7963 47.5418 14.7224L51.4994 12.5413L55.4569 14.7224C55.5862 14.7963 55.7037 14.8333 55.8095 14.8333C55.9329 14.8333 56.0254 14.7886 56.0871 14.6993C56.1488 14.6099 56.1797 14.5006 56.1797 14.3712C56.1797 14.3342 56.1738 14.2726 56.162 14.1864L55.404 9.5655L58.6124 6.29391C58.7593 6.12756 58.8327 5.97969 58.8327 5.85031C58.8327 5.62234 58.6682 5.48064 58.3391 5.42518L53.9144 4.75054L51.9313 0.545536C51.8196 0.292926 51.6757 0.166626 51.4994 0.166626C51.3231 0.166626 51.1791 0.292926 51.0675 0.545536L49.0843 4.75054L44.6596 5.42518C44.3306 5.48064 44.166 5.62234 44.166 5.85031Z" fill="#FFA858"/>
<path d="M66.166 5.85031C66.166 5.98585 66.2424 6.13372 66.3952 6.29391L69.5947 9.5655L68.8367 14.1864C68.8308 14.2295 68.8279 14.2911 68.8279 14.3712C68.8279 14.5006 68.8587 14.6099 68.9204 14.6993C68.9821 14.7886 69.0718 14.8333 69.1893 14.8333C69.3009 14.8333 69.4184 14.7963 69.5418 14.7224L73.4994 12.5413L77.4569 14.7224C77.5862 14.7963 77.7037 14.8333 77.8095 14.8333C77.9329 14.8333 78.0254 14.7886 78.0871 14.6993C78.1488 14.6099 78.1797 14.5006 78.1797 14.3712C78.1797 14.3342 78.1738 14.2726 78.162 14.1864L77.404 9.5655L80.6124 6.29391C80.7593 6.12756 80.8327 5.97969 80.8327 5.85031C80.8327 5.62234 80.6682 5.48064 80.3391 5.42518L75.9144 4.75054L73.9313 0.545536C73.8196 0.292926 73.6757 0.166626 73.4994 0.166626C73.3231 0.166626 73.1791 0.292926 73.0675 0.545536L71.0843 4.75054L66.6596 5.42518C66.3306 5.48064 66.166 5.62234 66.166 5.85031Z" fill="#FFA858"/>
<path d="M88.166 5.85031C88.166 5.98585 88.2424 6.13372 88.3952 6.29391L91.5947 9.5655L90.8367 14.1864C90.8308 14.2295 90.8279 14.2911 90.8279 14.3712C90.8279 14.5006 90.8587 14.6099 90.9204 14.6993C90.9821 14.7886 91.0718 14.8333 91.1893 14.8333C91.3009 14.8333 91.4184 14.7963 91.5418 14.7224L95.4994 12.5413L99.4567 14.7224C99.5857 14.7963 99.7037 14.8333 99.8097 14.8333C99.9327 14.8333 100.026 14.7886 100.087 14.6993C100.149 14.6099 100.18 14.5006 100.18 14.3712C100.18 14.3342 100.174 14.2726 100.162 14.1864L99.4037 9.5655L102.613 6.29391C102.76 6.12756 102.833 5.97969 102.833 5.85031C102.833 5.62234 102.668 5.48064 102.339 5.42518L97.9144 4.75054L95.9313 0.545536C95.8196 0.292926 95.6757 0.166626 95.4994 0.166626C95.3231 0.166626 95.1791 0.292926 95.0675 0.545536L93.0843 4.75054L88.6596 5.42518C88.3306 5.48064 88.166 5.62234 88.166 5.85031Z" fill="#FFA858"/>
</svg>
