<svg width="180" height="24" viewBox="0 0 180 24" fill="none" xmlns="http://www.w3.org/2000/svg">
<path d="M24.2617 8.57827L16.5999 7.44959L13.1657 0.395088C12.9092 -0.131696 12.013 -0.131696 11.7565 0.395088L8.3234 7.44959L0.661653 8.57827C0.0323472 8.67141 -0.21896 9.40951 0.222385 9.84516L5.78852 15.3474L4.4728 23.1259C4.36791 23.7439 5.05226 24.2075 5.61822 23.9041L12.4617 20.2567L19.3051 23.9051C19.8659 24.2055 20.5564 23.7509 20.4505 23.1269L19.1348 15.3484L24.7009 9.84616C25.1423 9.40951 24.8899 8.67141 24.2617 8.57827Z" fill="#FFC107"/>
<path d="M63.0312 8.57827L55.3694 7.44959L51.9353 0.395088C51.6788 -0.131696 50.7826 -0.131696 50.5261 0.395088L47.0929 7.44959L39.4312 8.57827C38.8019 8.67141 38.5506 9.40951 38.9919 9.84516L44.5581 15.3474L43.2423 23.1259C43.1374 23.7439 43.8218 24.2075 44.3877 23.9041L51.2312 20.2567L58.0746 23.9051C58.6354 24.2055 59.326 23.7509 59.2201 23.1269L57.9043 15.3484L63.4705 9.84616C63.9118 9.40951 63.6595 8.67141 63.0312 8.57827Z" fill="#FFC107"/>
<path d="M101.801 8.57827L94.139 7.44959L90.7048 0.395088C90.4483 -0.131696 89.5521 -0.131696 89.2956 0.395088L85.8625 7.44959L78.2007 8.57827C77.5714 8.67141 77.3201 9.40951 77.7614 9.84516L83.3276 15.3474L82.0119 23.1259C81.907 23.7439 82.5913 24.2075 83.1573 23.9041L90.0007 20.2567L96.8442 23.9051C97.4049 24.2055 98.0955 23.7509 97.9896 23.1269L96.6739 15.3484L102.24 9.84616C102.681 9.40951 102.429 8.67141 101.801 8.57827Z" fill="#FFC107"/>
<path d="M140.57 8.57827L132.909 7.44959L129.474 0.395088C129.218 -0.131696 128.322 -0.131696 128.065 0.395088L124.632 7.44959L116.97 8.57827C116.341 8.67141 116.09 9.40951 116.531 9.84516L122.097 15.3474L120.781 23.1259C120.677 23.7439 121.361 24.2075 121.927 23.9041L128.77 20.2567L135.614 23.9051C136.174 24.2055 136.865 23.7509 136.759 23.1269L135.443 15.3484L141.01 9.84616C141.451 9.40951 141.199 8.67141 140.57 8.57827Z" fill="#FFC107"/>
<path d="M179.34 8.57827L171.678 7.44959L168.244 0.395088C167.987 -0.131696 167.091 -0.131696 166.835 0.395088L163.402 7.44959L155.74 8.57827C155.11 8.67141 154.859 9.40951 155.301 9.84516L160.867 15.3474L159.551 23.1259C159.446 23.7439 160.13 24.2075 160.696 23.9041L167.54 20.2567L174.383 23.9051C174.944 24.2055 175.635 23.7509 175.529 23.1269L174.213 15.3484L179.779 9.84616C180.22 9.40951 179.968 8.67141 179.34 8.57827Z" fill="#FFC107"/>
</svg>
