<svg width="161" height="32" viewBox="0 0 161 32" fill="none" xmlns="http://www.w3.org/2000/svg">
<path d="M16.4991 23.0265L22.0325 26.3732C23.0458 26.9865 24.2858 26.0799 24.0191 24.9332L22.5525 18.6398L27.4458 14.3999C28.3391 13.6265 27.8591 12.1599 26.6858 12.0665L20.2458 11.5199L17.7258 5.57318C17.2725 4.49318 15.7258 4.49318 15.2725 5.57318L12.7525 11.5065L6.31245 12.0532C5.13912 12.1465 4.65912 13.6132 5.55245 14.3865L10.4458 18.6265L8.97912 24.9199C8.71245 26.0665 9.95245 26.9732 10.9658 26.3599L16.4991 23.0265Z" fill="#DDCB62"/>
<path d="M48.4991 23.0265L54.0325 26.3732C55.0458 26.9865 56.2858 26.0799 56.0191 24.9332L54.5525 18.6398L59.4458 14.3999C60.3391 13.6265 59.8591 12.1599 58.6858 12.0665L52.2458 11.5199L49.7258 5.57318C49.2725 4.49318 47.7258 4.49318 47.2725 5.57318L44.7525 11.5065L38.3125 12.0532C37.1391 12.1465 36.6591 13.6132 37.5525 14.3865L42.4458 18.6265L40.9791 24.9199C40.7125 26.0665 41.9525 26.9732 42.9658 26.3599L48.4991 23.0265Z" fill="#DDCB62"/>
<path d="M80.4991 23.0265L86.0325 26.3732C87.0458 26.9865 88.2858 26.0799 88.0191 24.9332L86.5525 18.6398L91.4458 14.3999C92.3391 13.6265 91.8591 12.1599 90.6858 12.0665L84.2458 11.5199L81.7258 5.57318C81.2725 4.49318 79.7258 4.49318 79.2725 5.57318L76.7525 11.5065L70.3125 12.0532C69.1391 12.1465 68.6591 13.6132 69.5525 14.3865L74.4458 18.6265L72.9791 24.9199C72.7125 26.0665 73.9525 26.9732 74.9658 26.3599L80.4991 23.0265Z" fill="#DDCB62"/>
<path d="M112.499 23.0265L118.032 26.3732C119.046 26.9865 120.286 26.0799 120.019 24.9332L118.552 18.6398L123.446 14.3999C124.339 13.6265 123.859 12.1599 122.686 12.0665L116.246 11.5199L113.726 5.57318C113.272 4.49318 111.726 4.49318 111.272 5.57318L108.752 11.5065L102.312 12.0532C101.139 12.1465 100.659 13.6132 101.552 14.3865L106.446 18.6265L104.979 24.9199C104.712 26.0665 105.952 26.9732 106.966 26.3599L112.499 23.0265Z" fill="#DDCB62"/>
<path d="M144.499 23.0265L150.032 26.3732C151.046 26.9865 152.286 26.0799 152.019 24.9332L150.552 18.6398L155.446 14.3999C156.339 13.6265 155.859 12.1599 154.686 12.0665L148.246 11.5199L145.726 5.57318C145.272 4.49318 143.726 4.49318 143.272 5.57318L140.752 11.5065L134.312 12.0532C133.139 12.1465 132.659 13.6132 133.552 14.3865L138.446 18.6265L136.979 24.9199C136.712 26.0665 137.952 26.9732 138.966 26.3599L144.499 23.0265Z" fill="#DDCB62"/>
</svg>
